<svg viewBox = "0 0 382 382" width="382" height="382" xmlns="http://www.w3.org/2000/svg"><g transform="matrix(1 0 0 1 191 191)"  ><g style=""   ><g transform="matrix(1 0 0 1 152.88 39.61)"  ><path style="stroke: rgb(78,102,206); stroke-width: 1.5; stroke-dasharray: none; stroke-linecap: round; stroke-dashoffset: 0; stroke-linejoin: round; stroke-miterlimit: 4; fill: none; fill-rule: nonzero; opacity: 1;"  transform=" translate(-343.88, -230.61)" d="M 366.678 160.438 C 372.376 173.237 375.478 187.04 375.806 201.046 C 376.134 215.052 373.682 228.986 368.588 242.038 C 363.496 255.088 355.864 267.002 346.138 277.084 C 336.41 287.166 324.778 295.22 311.918 300.778" stroke-linecap="round" /></g><g transform="matrix(1 0 0 1 121.66 -79.75)"  ><path style="stroke: rgb(78,102,206); stroke-width: 1.5; stroke-dasharray: none; stroke-linecap: round; stroke-dashoffset: 0; stroke-linejoin: round; stroke-miterlimit: 4; fill: none; fill-rule: nonzero; opacity: 1;"  transform=" translate(-312.66, -111.25)" d="M 286.038 98.952 C 305.752 101.954 324.21 110.479 339.278 123.54" stroke-linecap="round" /></g><g transform="matrix(1 0 0 1 46.34 -86.96)"  ><path style="stroke: rgb(78,102,206); stroke-width: 1.5; stroke-dasharray: none; stroke-linecap: round; stroke-dashoffset: 0; stroke-linejoin: round; stroke-miterlimit: 4; fill: none; fill-rule: nonzero; opacity: 1;"  transform=" translate(-237.34, -104.04)" d="M 222.766 108.832 C 231.962 104.233 241.78 101.007 251.912 99.258" stroke-linecap="round" /></g><g transform="matrix(1 0 0 1 -10.11 143.37)"  ><path style="stroke: rgb(78,102,206); stroke-width: 1.5; stroke-dasharray: none; stroke-linecap: round; stroke-dashoffset: 0; stroke-linejoin: round; stroke-miterlimit: 4; fill: none; fill-rule: nonzero; opacity: 1;"  transform=" translate(-180.89, -334.37)" d="M 159.758 287.744 L 202.016 381" stroke-linecap="round" /></g><g transform="matrix(1 0 0 1 14.76 46.43)"  ><path style="stroke: rgb(78,102,206); stroke-width: 1.5; stroke-dasharray: none; stroke-linecap: round; stroke-dashoffset: 0; stroke-linejoin: round; stroke-miterlimit: 4; fill: none; fill-rule: nonzero; opacity: 1;"  transform=" translate(-205.76, -237.43)" d="M 137.11 237.734 L 77.486 106.248 C 74.256 99.248 78.816 93.062 86.454 94.048 L 189.97 107.576 C 195.988 108.364 201.708 110.658 206.602 114.245 C 211.498 117.832 215.408 122.597 217.97 128.098 L 335.09 380.922" stroke-linecap="round" /></g><g transform="matrix(1 0 0 1 -65.37 46.05)"  ><path style="stroke: rgb(78,102,206); stroke-width: 1.5; stroke-dasharray: none; stroke-linecap: round; stroke-dashoffset: 0; stroke-linejoin: round; stroke-miterlimit: 4; fill: none; fill-rule: nonzero; opacity: 1;"  transform=" translate(-125.63, -237.05)" d="M 158.114 225.618 C 144.93 234.514 130.587 241.558 115.486 246.55 C 108.08 247.614 100.62 248.26 93.142 248.488" stroke-linecap="round" /></g><g transform="matrix(1 0 0 1 -127.54 85.08)"  ><path style="stroke: rgb(78,102,206); stroke-width: 1.5; stroke-dasharray: none; stroke-linecap: round; stroke-dashoffset: 0; stroke-linejoin: round; stroke-miterlimit: 4; fill: none; fill-rule: nonzero; opacity: 1;"  transform=" translate(-63.46, -276.08)" d="M 100.704 264.906 L 85.8 232.832 C 84.5538 230.168 82.301 228.106 79.5366 227.102 C 76.7722 226.098 73.722 226.232 71.056 227.474 L 27.02 248.032 C 24.3552 249.278 22.294 251.53 21.289 254.294 C 20.284 257.06 20.4174 260.11 21.66 262.776 L 47.958 319.324 C 49.2042 321.988 51.4568 324.05 54.2214 325.054 C 56.9858 326.058 60.036 325.924 62.702 324.682 L 106.29 304.35" stroke-linecap="round" /></g><g transform="matrix(1 0 0 1 -165.74 30.3)"  ><path style="stroke: rgb(78,102,206); stroke-width: 1.5; stroke-dasharray: none; stroke-linecap: round; stroke-dashoffset: 0; stroke-linejoin: round; stroke-miterlimit: 4; fill: none; fill-rule: nonzero; opacity: 1;"  transform=" translate(-25.26, -221.3)" d="M 48.832 237.81 C 48.832 237.81 19.22 235.086 7.06797 226.448 C -5.08403 217.81 5.00797 196.848 20.634 207.978 C 36.51 219.278 48.832 237.81 48.832 237.81 Z" stroke-linecap="round" /></g><g transform="matrix(1 0 0 1 -133.39 20.57)"  ><path style="stroke: rgb(78,102,206); stroke-width: 1.5; stroke-dasharray: none; stroke-linecap: round; stroke-dashoffset: 0; stroke-linejoin: round; stroke-miterlimit: 4; fill: none; fill-rule: nonzero; opacity: 1;"  transform=" translate(-57.61, -211.57)" d="M 48.8 237.81 C 48.8 237.81 67.212 214.48 69.32 199.694 C 71.428 184.908 49.282 177.848 46.6 196.8 C 43.848 216.116 48.8 237.81 48.8 237.81 Z" stroke-linecap="round" /></g><g transform="matrix(1 0 0 1 -13.77 19.24)"  ><path style="stroke: rgb(78,102,206); stroke-width: 1.5; stroke-dasharray: none; stroke-linecap: round; stroke-dashoffset: 0; stroke-linejoin: round; stroke-miterlimit: 4; fill: none; fill-rule: nonzero; opacity: 1;"  transform=" translate(-177.23, -210.24)" d="M 157.456 223.414 L 159.34 217.414 C 159.34 217.414 141.598 229.46 144.862 203.542 C 147.204 184.942 156.94 193.942 159.194 200.784 C 159.722 202.384 160.366 202.89 161.994 200.464 C 164.918 196.13 170.31 201.942 164.008 207.912 C 162.798 209.06 163.26 217.59 170.508 223.798 C 175.108 227.742 189.356 230.486 209.99 224.598" stroke-linecap="round" /></g><g transform="matrix(1 0 0 1 -32.17 35.49)"  ><path style="stroke: rgb(78,102,206); stroke-width: 1.5; stroke-dasharray: none; stroke-linecap: round; stroke-dashoffset: 0; stroke-linejoin: round; stroke-miterlimit: 4; fill: none; fill-rule: nonzero; opacity: 1;"  transform=" translate(-158.83, -226.49)" d="M 156.3 219.038 C 157.487 224.158 159.18 229.148 161.354 233.934" stroke-linecap="round" /></g><g transform="matrix(1 0 0 1 -61.01 52.24)"  ><path style="stroke: rgb(78,102,206); stroke-width: 1.5; stroke-dasharray: none; stroke-linecap: round; stroke-dashoffset: 0; stroke-linejoin: round; stroke-miterlimit: 4; fill: none; fill-rule: nonzero; opacity: 1;"  transform=" translate(-129.99, -243.24)" d="M 167.55 220.672 C 162.95 235.378 149.422 251.718 138.82 265.02 C 123.36 266.346 107.802 265.988 92.42 263.954" stroke-linecap="round" /></g><g transform="matrix(1 0 0 1 -33.77 89.43)"  ><path style="stroke: rgb(78,102,206); stroke-width: 1.5; stroke-dasharray: none; stroke-linecap: round; stroke-dashoffset: 0; stroke-linejoin: round; stroke-miterlimit: 4; fill: none; fill-rule: nonzero; opacity: 1;"  transform=" translate(-157.23, -280.43)" d="M 224.97 254.34 C 218.378 259.572 210.39 262.744 202.004 263.456 C 193.618 264.168 185.209 262.388 177.83 258.34 C 172.492 268.348 166.558 278.026 160.062 287.324 C 157.915 290.56 154.723 292.96 151.018 294.124 C 130.971 300.28 110.362 304.43 89.494 306.512" stroke-linecap="round" /></g><g transform="matrix(1 0 0 1 19.1 55.4)"  ><path style="stroke: rgb(78,102,206); stroke-width: 1.5; stroke-dasharray: none; stroke-linecap: round; stroke-dashoffset: 0; stroke-linejoin: round; stroke-miterlimit: 4; fill: none; fill-rule: nonzero; opacity: 1;"  transform=" translate(-210.1, -246.4)" d="M 206.348 262.93 C 213.494 274.368 221.086 281.268 225.312 279.308 C 238.386 273.242 207.964 207.436 194.682 213.564 C 191.718 214.934 191.034 220.328 192.282 227.816" stroke-linecap="round" /></g><g transform="matrix(1 0 0 1 105.53 -27.43)"  ><path style="stroke: rgb(78,102,206); stroke-width: 1.5; stroke-dasharray: none; stroke-linecap: round; stroke-dashoffset: 0; stroke-linejoin: round; stroke-miterlimit: 4; fill: none; fill-rule: nonzero; opacity: 1;"  transform=" translate(-296.53, -163.57)" d="M 325.94 127.264 C 326.32 138.968 327.764 181.264 327.764 185.634 C 321.076 186.66 268.292 199.352 265.29 199.884" stroke-linecap="round" /></g><g transform="matrix(1 0 0 1 135.96 -4.32)"  ><path style="stroke: rgb(78,102,206); stroke-width: 1.5; stroke-dasharray: none; stroke-linecap: round; stroke-dashoffset: 0; stroke-linejoin: round; stroke-miterlimit: 4; fill: none; fill-rule: nonzero; opacity: 1;"  transform=" translate(-326.96, -186.68)" d="M 286.8 246.132 C 366.946 217.932 365.19 219.264 366.8 197.262 C 367.822 183.24 366.154 143.034 365.166 127.226" stroke-linecap="round" /></g><g transform="matrix(1 0 0 1 69.92 -47.72)"  ><path style="stroke: rgb(78,102,206); stroke-width: 1.5; stroke-dasharray: none; stroke-linecap: round; stroke-dashoffset: 0; stroke-linejoin: round; stroke-miterlimit: 4; fill: none; fill-rule: nonzero; opacity: 1;"  transform=" translate(-260.92, -143.28)" d="M 245.49 107.046 C 251.266 117.23 274.29 155.308 276.348 159.146 C 274.148 160.78 264.074 171.688 255.748 179.516" stroke-linecap="round" /></g><g transform="matrix(1 0 0 1 107.49 -52.11)"  ><path style="stroke: rgb(78,102,206); stroke-width: 1.5; stroke-dasharray: none; stroke-linecap: round; stroke-dashoffset: 0; stroke-linejoin: round; stroke-miterlimit: 4; fill: none; fill-rule: nonzero; opacity: 1;"  transform=" translate(-298.49, -138.89)" d="M 306.066 190.384 C 321.76 166.1 318.714 160.062 313.866 149.95 C 307.586 136.882 286.884 99.864 279.208 87.4" stroke-linecap="round" /></g><g transform="matrix(1 0 0 1 60.67 -138.81)"  ><path style="stroke: rgb(78,102,206); stroke-width: 1.5; stroke-dasharray: none; stroke-linecap: round; stroke-dashoffset: 0; stroke-linejoin: round; stroke-miterlimit: 4; fill: none; fill-rule: nonzero; opacity: 1;"  transform=" translate(-251.67, -52.19)" d="M 254.116 21.124 C 247.352 33.246 240.284 61.064 239.716 73.682 C 241.73 76.91 243.668 80.102 245.53 83.258 C 250.916 78.5092 257.006 74.6244 263.582 71.742 C 263.614 68.23 264.642 52.042 254.116 21.124 Z" stroke-linecap="round" /></g><g transform="matrix(1 0 0 1 22.16 41.25)"  ><path style="stroke: rgb(78,102,206); stroke-width: 1.5; stroke-dasharray: none; stroke-linecap: round; stroke-dashoffset: 0; stroke-linejoin: round; stroke-miterlimit: 4; fill: none; fill-rule: nonzero; opacity: 1;"  transform=" translate(-213.16, -232.25)" d="M 77.244 98.21 C 79.3048 93.3906 82.8786 89.3732 87.425 86.7648 C 91.9714 84.1564 97.2432 83.0988 102.444 83.752 L 203.946 96.824 C 208.344 97.388 212.526 99.0576 216.102 101.677 C 219.68 104.295 222.534 107.778 224.4 111.8 L 349.082 380.928" stroke-linecap="round" /></g><g transform="matrix(1 0 0 1 -96.47 -79.16)"  ><path style="stroke: rgb(78,102,206); stroke-width: 1.5; stroke-dasharray: none; stroke-linecap: round; stroke-dashoffset: 0; stroke-linejoin: round; stroke-miterlimit: 4; fill: none; fill-rule: nonzero; opacity: 1;"  transform=" translate(-94.53, -111.84)" d="M 98.2 110.124 C 99.6 113.164 99.112 116.394 97.098 117.344 C 95.084 118.294 92.272 116.584 90.866 113.544 C 89.46 110.504 89.946 107.258 91.968 106.324 C 93.99 105.39 96.8 107.084 98.2 110.124 Z" stroke-linecap="round" /></g><g transform="matrix(1 0 0 1 -151.04 -53.7)"  ><path style="stroke: rgb(78,102,206); stroke-width: 1.5; stroke-dasharray: none; stroke-linecap: round; stroke-dashoffset: 0; stroke-linejoin: round; stroke-miterlimit: 4; fill: none; fill-rule: nonzero; opacity: 1;"  transform=" translate(-39.96, -137.3)" d="M 34.886 126.314 L 45.032 148.278" stroke-linecap="round" /></g><g transform="matrix(1 0 0 1 -151.04 -53.7)"  ><path style="stroke: rgb(78,102,206); stroke-width: 1.5; stroke-dasharray: none; stroke-linecap: round; stroke-dashoffset: 0; stroke-linejoin: round; stroke-miterlimit: 4; fill: none; fill-rule: nonzero; opacity: 1;"  transform=" translate(-39.96, -137.3)" d="M 50.922 132.204 L 28.996 142.388" stroke-linecap="round" /></g><g transform="matrix(1 0 0 1 155.22 -46.99)"  ><path style="stroke: rgb(78,102,206); stroke-width: 1.5; stroke-dasharray: none; stroke-linecap: round; stroke-dashoffset: 0; stroke-linejoin: round; stroke-miterlimit: 4; fill: none; fill-rule: nonzero; opacity: 1;"  transform=" translate(-346.22, -144.01)" d="M 326.472 142.502 C 339.306 146.716 352.442 146.302 365.958 142.502" stroke-linecap="round" /></g><g transform="matrix(1 0 0 1 79.02 -80.72)"  ><path style="stroke: rgb(78,102,206); stroke-width: 1.5; stroke-dasharray: none; stroke-linecap: round; stroke-dashoffset: 0; stroke-linejoin: round; stroke-miterlimit: 4; fill: none; fill-rule: nonzero; opacity: 1;"  transform=" translate(-270.02, -110.28)" d="M 253.268 120.304 C 266.454 117.789 278.326 110.691 286.782 100.266" stroke-linecap="round" /></g><g transform="matrix(1 0 0 1 -30.23 -169.87)"  ><path style="stroke: rgb(78,102,206); stroke-width: 1.5; stroke-dasharray: none; stroke-linecap: round; stroke-dashoffset: 0; stroke-linejoin: round; stroke-miterlimit: 4; fill: none; fill-rule: nonzero; opacity: 1;"  transform=" translate(-160.77, -21.13)" d="M 180.242 18.616 L 153.982 29.638 L 177.316 13.296 L 171.274 2.314 C 171.076 1.95728 170.795 1.65324 170.455 1.42734 C 170.115 1.20142 169.726 1.06024 169.321 1.01558 C 168.915 0.970924 168.505 1.02412 168.124 1.17068 C 167.743 1.31724 167.403 1.55294 167.132 1.858 L 135.552 37.01 C 135.204 37.4048 134.986 37.8974 134.929 38.4206 C 134.871 38.9438 134.976 39.472 135.229 39.9332 C 135.483 40.3946 135.872 40.7664 136.345 40.998 C 136.818 41.2298 137.35 41.31 137.87 41.228 L 184.498 33.362 C 184.899 33.2966 185.278 33.1364 185.604 32.8944 C 185.93 32.6524 186.193 32.3358 186.372 31.9712 C 186.551 31.6066 186.639 31.2044 186.631 30.7986 C 186.622 30.3926 186.516 29.9946 186.322 29.638 L 180.242 18.616 Z" stroke-linecap="round" /></g><g transform="matrix(1 0 0 1 169.08 117.36)"  ><path style="stroke: rgb(78,102,206); stroke-width: 1.5; stroke-dasharray: none; stroke-linecap: round; stroke-dashoffset: 0; stroke-linejoin: round; stroke-miterlimit: 4; fill: none; fill-rule: nonzero; opacity: 1;"  transform=" translate(-360.08, -308.36)" d="M 339.848 312.56 C 358.166 322.402 362.004 294.318 380.32 304.16" stroke-linecap="round" /></g><g transform="matrix(1 0 0 1 -126.62 67.34)"  ><path style="stroke: rgb(78,102,206); stroke-width: 1.5; stroke-dasharray: none; stroke-linecap: round; stroke-dashoffset: 0; stroke-linejoin: round; stroke-miterlimit: 4; fill: none; fill-rule: nonzero; opacity: 1;"  transform=" translate(-64.38, -258.34)" d="M 76.612 261.6 C 69.3198 259.892 62.334 257.074 55.9 253.24 C 52.024 251.112 50.57 253.252 54.342 256.584 C 57.835 259.546 61.6306 262.134 65.666 264.3" stroke-linecap="round" /></g><g transform="matrix(1 0 0 1 -135.55 72.44)"  ><path style="stroke: rgb(78,102,206); stroke-width: 1.5; stroke-dasharray: none; stroke-linecap: round; stroke-dashoffset: 0; stroke-linejoin: round; stroke-miterlimit: 4; fill: none; fill-rule: nonzero; opacity: 1;"  transform=" translate(-55.45, -263.44)" d="M 62.2 262.32 C 58.0888 261.006 54.0654 259.432 50.154 257.608 C 46.246 255.546 45.104 258.208 49.09 261.256 C 53.9268 264.552 59.0082 267.476 64.29 269.998" stroke-linecap="round" /></g><g transform="matrix(1 0 0 1 -136.29 78.17)"  ><path style="stroke: rgb(78,102,206); stroke-width: 1.5; stroke-dasharray: none; stroke-linecap: round; stroke-dashoffset: 0; stroke-linejoin: round; stroke-miterlimit: 4; fill: none; fill-rule: nonzero; opacity: 1;"  transform=" translate(-54.71, -269.17)" d="M 58.522 267.11 C 55.5402 266.418 52.5974 265.568 49.706 264.564 C 45.62 263.032 44.77 265.884 49.06 268.326 C 53.598 270.684 58.3268 272.654 63.196 274.216" stroke-linecap="round" /></g><g transform="matrix(1 0 0 1 -118.12 89.62)"  ><path style="stroke: rgb(78,102,206); stroke-width: 1.5; stroke-dasharray: none; stroke-linecap: round; stroke-dashoffset: 0; stroke-linejoin: round; stroke-miterlimit: 4; fill: none; fill-rule: nonzero; opacity: 1;"  transform=" translate(-72.88, -280.62)" d="M 96.448 289.682 C 95.384 290.024 76.724 284.896 65.742 280.638 C 61.342 278.928 56.742 277.21 52.442 275.09 C 48.114 272.954 48.37 270.818 52.556 271.784 C 54.074 272.134 55.862 272.354 58.788 272.734" stroke-linecap="round" /></g><g transform="matrix(1 0 0 1 -108.37 86.9)"  ><path style="stroke: rgb(78,102,206); stroke-width: 1.5; stroke-dasharray: none; stroke-linecap: round; stroke-dashoffset: 0; stroke-linejoin: round; stroke-miterlimit: 4; fill: none; fill-rule: nonzero; opacity: 1;"  transform=" translate(-82.63, -277.9)" d="M 83.716 286.528 C 83.184 297.51 85.352 306.318 88.734 306.592 C 97.196 307.278 100.534 265.342 92.116 263.88 C 85.9848 262.512 80.3936 259.364 76.042 254.834 C 67.708 245.724 65.096 247.69 73.002 260.42" stroke-linecap="round" /></g><g transform="matrix(1 0 0 1 -5.74 153.24)"  ><path style="stroke: rgb(78,102,206); stroke-width: 1.5; stroke-dasharray: none; stroke-linecap: round; stroke-dashoffset: 0; stroke-linejoin: round; stroke-miterlimit: 4; fill: none; fill-rule: nonzero; opacity: 1;"  transform=" translate(-185.26, -344.24)" d="M 176.974 325.86 C 173.398 327.474 170.37 330.096 168.262 333.404 C 166.155 336.712 165.059 340.566 165.109 344.488 C 165.159 348.41 166.352 352.234 168.544 355.488 C 170.735 358.742 173.828 361.286 177.444 362.808 C 181.06 364.33 185.042 364.762 188.901 364.054 C 192.76 363.346 196.328 361.526 199.168 358.82 C 202.006 356.112 203.994 352.636 204.886 348.814 C 205.78 344.994 205.536 340.996 204.19 337.312 C 203.234 334.712 201.754 332.336 199.842 330.334 C 197.93 328.33 195.626 326.742 193.072 325.668 C 190.519 324.594 187.773 324.056 185.003 324.09 C 182.234 324.122 179.501 324.726 176.974 325.86 Z" stroke-linecap="round" /></g><g transform="matrix(1 0 0 1 71.41 -93.65)"  ><path style="stroke: rgb(78,102,206); stroke-width: 1.5; stroke-dasharray: none; stroke-linecap: round; stroke-dashoffset: 0; stroke-linejoin: round; stroke-miterlimit: 4; fill: none; fill-rule: nonzero; opacity: 1;"  transform=" translate(-262.41, -97.35)" d="M 272.966 87.818 C 276.348 86.716 278.734 86.53 279.312 87.514 C 280.912 90.242 269.298 97.914 266.574 99.584 C 262.974 101.784 247.434 110.416 245.49 107.046 C 244.63 105.556 248.188 101.802 254.002 97.736" stroke-linecap="round" /></g><g transform="matrix(1 0 0 1 69.73 -102.92)"  ><path style="stroke: rgb(78,102,206); stroke-width: 1.5; stroke-dasharray: none; stroke-linecap: round; stroke-dashoffset: 0; stroke-linejoin: round; stroke-miterlimit: 4; fill: none; fill-rule: nonzero; opacity: 1;"  transform=" translate(-260.73, -88.08)" d="M 263.58 71.742 C 257.008 74.593 250.928 78.467 245.566 83.22 C 249.784 90.364 254.192 97.82 257.576 104.42 C 264.176 101.396 270.336 97.4936 275.892 92.82 L 263.58 71.742 Z" stroke-linecap="round" /></g><g transform="matrix(1 0 0 1 161.38 -109.19)"  ><path style="stroke: rgb(78,102,206); stroke-width: 1.5; stroke-dasharray: none; stroke-linecap: round; stroke-dashoffset: 0; stroke-linejoin: round; stroke-miterlimit: 4; fill: none; fill-rule: nonzero; opacity: 1;"  transform=" translate(-352.38, -81.81)" d="M 366.906 53.616 C 357.52 61.71 340.494 88.73 337.34 98.496 C 337.91 103.208 338.366 106.552 338.67 109.402 C 345.668 110.337 352.768 110.196 359.724 108.984 L 359.648 105.868 C 367.78 79.306 368.084 67.904 366.906 53.616 Z" stroke-linecap="round" /></g><g transform="matrix(1 0 0 1 158.46 -70.79)"  ><path style="stroke: rgb(78,102,206); stroke-width: 1.5; stroke-dasharray: none; stroke-linecap: round; stroke-dashoffset: 0; stroke-linejoin: round; stroke-miterlimit: 4; fill: none; fill-rule: nonzero; opacity: 1;"  transform=" translate(-349.46, -120.21)" d="M 359.724 108.984 C 352.768 110.196 345.668 110.337 338.67 109.402 C 339.374 116.639 339.488 123.922 339.012 131.178 C 346.114 131.772 353.264 131.375 360.256 130 C 359.73 108.778 359.828 112.576 359.724 108.984 Z" stroke-linecap="round" /></g><g transform="matrix(1 0 0 1 126.78 -106.58)"  ><path style="stroke: rgb(78,102,206); stroke-width: 1.5; stroke-dasharray: none; stroke-linecap: round; stroke-dashoffset: 0; stroke-linejoin: round; stroke-miterlimit: 4; fill: none; fill-rule: nonzero; opacity: 1;"  transform=" translate(-317.78, -84.42)" d="M 320.2 87.552 C 319.58 88.0292 318.832 88.3118 318.052 88.3642 C 317.272 88.4166 316.492 88.2362 315.814 87.846 C 315.136 87.4558 314.588 86.8732 314.242 86.172 C 313.894 85.4708 313.764 84.6824 313.864 83.9066 C 313.966 83.1306 314.294 82.4022 314.808 81.8132 C 315.324 81.2242 316.002 80.801 316.758 80.5974 C 317.512 80.3938 318.312 80.4188 319.054 80.669 C 319.794 80.9194 320.444 81.384 320.922 82.004 C 321.556 82.8374 321.838 83.8876 321.702 84.9266 C 321.566 85.9654 321.026 86.909 320.2 87.552 Z" stroke-linecap="round" /></g><g transform="matrix(1 0 0 1 -27.61 -7.26)"  ><path style="stroke: rgb(78,102,206); stroke-width: 1.5; stroke-dasharray: none; stroke-linecap: round; stroke-dashoffset: 0; stroke-linejoin: round; stroke-miterlimit: 4; fill: none; fill-rule: nonzero; opacity: 1;"  transform=" translate(-163.39, -183.74)" d="M 199.242 184.038 C 199.066 185.268 198.492 186.407 197.606 187.279 C 196.72 188.15 195.572 188.707 194.34 188.864 C 195.552 189.445 196.518 190.438 197.064 191.666 C 197.61 192.892 197.702 194.276 197.324 195.564 C 196.944 196.854 196.118 197.966 194.994 198.702 C 193.868 199.436 192.52 199.748 191.186 199.58 C 191.654 200.176 191.996 200.86 192.192 201.592 C 192.388 202.322 192.434 203.086 192.326 203.836 C 192.224 204.572 191.978 205.28 191.602 205.922 C 191.226 206.562 190.727 207.124 190.134 207.572 C 189.541 208.02 188.866 208.346 188.146 208.534 C 187.427 208.72 186.678 208.764 185.942 208.662 C 185.403 208.586 184.878 208.434 184.384 208.206 C 184.586 208.962 184.638 209.748 184.536 210.524 C 184.396 211.566 183.967 212.548 183.299 213.36 C 182.63 214.17 181.748 214.778 180.751 215.114 C 179.755 215.45 178.685 215.5 177.662 215.26 C 176.638 215.02 175.702 214.498 174.96 213.754 C 174.966 213.92 174.953 214.086 174.922 214.248 C 174.709 215.732 173.919 217.072 172.723 217.974 C 171.528 218.878 170.023 219.274 168.538 219.074 C 167.434 218.928 166.401 218.452 165.574 217.706 C 163.028 212.918 163.324 208.506 163.974 207.864 C 170.174 201.792 164.882 196.082 161.958 200.416 C 160.746 202.216 159.814 202.842 159.18 200.86 C 156.99 194.014 147.416 184.894 144.82 203.532 C 144.158 207.166 144.184 210.892 144.896 214.516 C 144.15 213.904 143.573 213.11 143.221 212.212 C 142.868 211.314 142.752 210.34 142.882 209.384 C 142.913 209.152 142.963 208.924 143.034 208.7 C 142.013 209.214 140.858 209.4 139.728 209.232 C 138.248 209.012 136.913 208.22 136.011 207.026 C 135.108 205.832 134.71 204.332 134.902 202.848 C 135.028 201.992 135.339 201.172 135.814 200.448 C 135.348 200.486 134.88 200.486 134.414 200.448 C 133.277 200.294 132.214 199.796 131.367 199.022 C 130.52 198.248 129.929 197.232 129.673 196.114 C 129.417 194.996 129.508 193.826 129.934 192.76 C 130.36 191.694 131.101 190.784 132.058 190.15 C 130.741 189.891 129.558 189.173 128.721 188.123 C 127.884 187.074 127.447 185.761 127.488 184.419 C 127.529 183.077 128.046 181.793 128.945 180.797 C 129.845 179.8 131.069 179.156 132.4 178.978 C 131.192 178.399 130.229 177.409 129.682 176.186 C 129.135 174.963 129.041 173.585 129.415 172.299 C 129.789 171.012 130.607 169.9 131.725 169.161 C 132.842 168.422 134.186 168.103 135.516 168.262 C 134.812 167.378 134.389 166.303 134.302 165.176 C 134.215 164.049 134.468 162.922 135.027 161.94 C 135.587 160.958 136.428 160.167 137.442 159.668 C 138.456 159.169 139.596 158.985 140.716 159.14 C 141.244 159.211 141.757 159.365 142.236 159.596 C 142.01 158.832 141.946 158.03 142.046 157.24 C 142.144 156.502 142.388 155.791 142.763 155.148 C 143.138 154.505 143.636 153.943 144.23 153.494 C 144.824 153.045 145.501 152.718 146.222 152.533 C 146.943 152.348 147.693 152.307 148.43 152.414 C 149.619 152.588 150.723 153.134 151.584 153.972 C 151.65 152.674 152.161 151.438 153.031 150.473 C 153.901 149.507 155.077 148.871 156.361 148.67 C 157.645 148.47 158.959 148.717 160.082 149.371 C 161.205 150.025 162.069 151.046 162.528 152.262 C 164.55 146.014 174.016 147.726 173.928 154.086 C 174.706 153.122 175.779 152.44 176.982 152.143 C 178.185 151.847 179.451 151.952 180.589 152.443 C 181.726 152.934 182.671 153.784 183.28 154.863 C 183.889 155.942 184.128 157.191 183.96 158.418 C 183.931 158.663 183.881 158.904 183.808 159.14 C 184.818 158.635 185.958 158.449 187.076 158.608 C 188.562 158.82 189.903 159.611 190.809 160.809 C 191.714 162.006 192.108 163.513 191.908 165 C 191.798 165.867 191.472 166.693 190.958 167.4 C 191.414 167.359 191.872 167.371 192.326 167.436 C 193.806 167.657 195.14 168.449 196.044 169.643 C 196.946 170.837 197.344 172.338 197.152 173.822 C 197.042 174.622 196.76 175.389 196.328 176.071 C 195.896 176.753 195.32 177.334 194.644 177.774 C 196.074 178.016 197.354 178.805 198.212 179.975 C 199.07 181.144 199.44 182.601 199.242 184.038 Z" stroke-linecap="round" /></g><g transform="matrix(1 0 0 1 -142.66 58.4)"  ><path style="stroke: rgb(78,102,206); stroke-width: 1.5; stroke-dasharray: none; stroke-linecap: round; stroke-dashoffset: 0; stroke-linejoin: round; stroke-miterlimit: 4; fill: none; fill-rule: nonzero; opacity: 1;"  transform=" translate(-48.34, -249.4)" d="M 44.006 240.09 L 52.67 258.71" stroke-linecap="round" /></g><g transform="matrix(1 0 0 1 -120.05 106.97)"  ><path style="stroke: rgb(78,102,206); stroke-width: 1.5; stroke-dasharray: none; stroke-linecap: round; stroke-dashoffset: 0; stroke-linejoin: round; stroke-miterlimit: 4; fill: none; fill-rule: nonzero; opacity: 1;"  transform=" translate(-70.95, -297.97)" d="M 62.208 279.194 L 79.69 316.74" stroke-linecap="round" /></g><g transform="matrix(1 0 0 1 -131.72 55.47)"  ><path style="stroke: rgb(78,102,206); stroke-width: 1.5; stroke-dasharray: none; stroke-linecap: round; stroke-dashoffset: 0; stroke-linejoin: round; stroke-miterlimit: 4; fill: none; fill-rule: nonzero; opacity: 1;"  transform=" translate(-59.28, -246.47)" d="M 54.114 235.378 L 64.45 257.57" stroke-linecap="round" /></g><g transform="matrix(1 0 0 1 -109.9 102.37)"  ><path style="stroke: rgb(78,102,206); stroke-width: 1.5; stroke-dasharray: none; stroke-linecap: round; stroke-dashoffset: 0; stroke-linejoin: round; stroke-miterlimit: 4; fill: none; fill-rule: nonzero; opacity: 1;"  transform=" translate(-81.1, -293.37)" d="M 76.954 284.476 L 85.238 302.26" stroke-linecap="round" /></g><g transform="matrix(1 0 0 1 -102.84 117.49)"  ><path style="stroke: rgb(78,102,206); stroke-width: 1.5; stroke-dasharray: none; stroke-linecap: round; stroke-dashoffset: 0; stroke-linejoin: round; stroke-miterlimit: 4; fill: none; fill-rule: nonzero; opacity: 1;"  transform=" translate(-88.16, -308.49)" d="M 86.53 304.958 L 89.798 312.028" stroke-linecap="round" /></g><g transform="matrix(1 0 0 1 154.59 -63.6)"  ><path style="stroke: rgb(78,102,206); stroke-width: 1.5; stroke-dasharray: none; stroke-linecap: round; stroke-dashoffset: 0; stroke-linejoin: round; stroke-miterlimit: 4; fill: none; fill-rule: nonzero; opacity: 1;"  transform=" translate(-345.59, -127.4)" d="M 339.2 123.35 C 335.858 123.58 324.6 124.808 326.064 127.794 C 327.594 130.9 342.464 131.45 346.232 131.44 C 361.272 131.402 372.114 127.266 360.102 124.452" stroke-linecap="round" /></g><g transform="matrix(1 0 0 1 -11.14 63.74)"  ><path style="stroke: rgb(78,102,206); stroke-width: 1.5; stroke-dasharray: none; stroke-linecap: round; stroke-dashoffset: 0; stroke-linejoin: round; stroke-miterlimit: 4; fill: none; fill-rule: nonzero; opacity: 1;"  transform=" translate(-179.86, -254.74)" d="M 177.84 258.322 C 179.343 255.344 180.69 252.29 181.876 249.172 L 181.876 260.306" stroke-linecap="round" /></g></g></g></svg>