<svg viewBox = "0 0 381 369" width="381" height="369" xmlns="http://www.w3.org/2000/svg"><g transform="matrix(1 0 0 1 190.5 184.5)"  ><g style=""   ><g transform="matrix(1 0 0 1 -65.24 -105.54)"  ><path style="stroke: none; stroke-width: 1; stroke-dasharray: none; stroke-linecap: butt; stroke-dashoffset: 0; stroke-linejoin: miter; stroke-miterlimit: 4; fill: rgb(78,102,206); fill-rule: nonzero; opacity: 1;"  transform=" translate(-125.26, -78.96)" d="M 181.776 53.3908 C 182.236 53.0108 182.276 51.9508 182.356 50.9108 C 182.996 38.9871 183.036 27.0386 182.476 15.1108 C 182.216 12.4508 182.116 12.3508 179.276 12.1308 C 171.596 11.4708 138.676 12.1308 137.156 13.5308 C 136.116 14.5308 136.636 49.7908 137.576 52.9708 C 137.646 53.118 137.753 53.2448 137.886 53.3393 C 138.019 53.4338 138.174 53.4928 138.336 53.5108 C 140.876 53.9308 179.596 55.1908 181.776 53.3908 Z M 137.596 13.9708 C 139.296 12.8708 176.836 12.6708 180.816 13.7708 C 181.836 18.6508 181.236 49.2708 180.656 52.2908 C 173.596 53.2508 142.776 52.6108 138.796 52.1908 C 137.71 39.4816 137.31 26.7231 137.596 13.9708 L 137.596 13.9708 Z M 183.616 64.7708 C 183.585 64.5551 183.496 64.3517 183.359 64.1826 C 183.222 64.0135 183.041 63.8849 182.836 63.8108 C 179.396 62.5708 140.136 63.3908 138.576 64.8908 C 137.596 65.8108 137.956 100.891 138.976 104.331 C 139.046 104.478 139.153 104.605 139.286 104.699 C 139.419 104.794 139.574 104.853 139.736 104.871 C 143.016 105.411 177.896 106.251 182.496 105.051 C 183.176 104.871 183.396 104.611 183.516 104.171 C 184.316 101.151 184.656 68.8508 183.616 64.7708 L 183.616 64.7708 Z M 182.056 103.631 C 174.976 104.591 144.316 103.991 140.196 103.631 C 139.256 98.9308 138.496 68.3308 138.996 65.4108 C 140.776 64.2108 178.556 64.1908 182.216 65.1908 C 183.156 69.6308 182.656 100.251 182.056 103.631 L 182.056 103.631 Z M 235.456 52.9508 C 235.896 52.5908 235.936 51.5108 236.036 50.4708 C 236.636 38.545 236.636 26.5966 236.036 14.6708 C 235.776 12.0108 235.656 11.9308 232.856 11.6908 C 225.156 11.0508 192.256 11.6908 190.736 13.0908 C 189.696 14.0708 190.196 49.3508 191.156 52.5308 C 191.214 52.6828 191.314 52.8147 191.446 52.9106 C 191.577 53.0064 191.733 53.0621 191.896 53.0708 C 194.656 53.5108 233.256 54.7508 235.456 52.9508 Z M 191.276 13.5308 C 195.276 12.3108 230.916 12.3308 234.476 13.3308 C 235.416 17.8108 234.996 48.3508 234.316 51.8508 C 227.236 52.8108 196.556 52.1908 192.456 51.8508 C 191.367 39.1084 190.973 26.3161 191.276 13.5308 L 191.276 13.5308 Z M 63.0557 131.131 C 63.3357 131.911 64.3757 132.251 65.2357 132.451 C 72.5557 134.231 99.4357 133.271 107.736 131.691 C 108.616 131.531 110.376 131.211 110.856 130.471 C 112.696 127.511 111.956 79.9308 109.756 77.2908 C 107.556 74.6508 68.8957 75.1108 65.4957 77.7108 C 62.9357 79.6908 62.3357 129.051 63.0557 131.131 L 63.0557 131.131 Z M 66.3557 78.7308 C 69.5957 76.4708 107.736 75.8108 109.276 77.6708 C 111.276 80.0708 111.036 126.851 109.656 129.671 C 105.916 131.671 69.2557 132.931 64.5157 130.631 C 63.8757 130.251 64.4757 82.8308 66.3557 78.7308 Z M 14.1757 145.311 C 14.3347 145.549 14.5484 145.746 14.7988 145.885 C 15.0493 146.024 15.3293 146.102 15.6157 146.111 C 22.8035 146.698 30.0315 146.577 37.1957 145.751 C 37.8501 145.725 38.4799 145.494 38.9957 145.091 C 40.0757 143.671 39.5157 123.771 38.2957 122.571 C 37.0757 121.371 17.5557 121.311 15.5957 122.571 C 15.2963 122.827 15.0977 123.182 15.0357 123.571 C 14.1318 130.78 13.8441 138.053 14.1757 145.311 L 14.1757 145.311 Z M 37.8357 144.251 C 34.2836 144.745 30.7021 144.999 27.1157 145.011 C 27.3834 144.466 27.684 143.939 28.0157 143.431 C 29.2032 141.877 30.7496 140.634 32.5226 139.808 C 34.2955 138.983 36.2421 138.599 38.1957 138.691 C 38.1873 140.55 38.0671 142.406 37.8357 144.251 L 37.8357 144.251 Z M 16.4557 123.631 C 18.8557 122.691 37.2757 122.431 37.8757 123.011 C 38.0567 123.616 38.1641 124.24 38.1957 124.871 C 35.1357 125.271 34.6557 131.051 34.5757 134.131 C 33.3354 132.119 31.9589 130.195 30.4557 128.371 C 29.9293 127.949 29.3049 127.668 28.6405 127.553 C 27.9762 127.437 27.2934 127.492 26.6557 127.711 C 25.1957 128.351 25.4757 130.151 25.6757 131.571 C 26.1893 133.389 26.9142 135.141 27.8357 136.791 C 26.6357 135.831 21.8357 131.951 20.4757 131.711 C 19.1157 131.471 17.7957 131.551 17.1157 132.751 C 15.1157 136.271 19.9357 142.111 22.7957 144.971 C 20.3894 145.002 17.9838 144.869 15.5957 144.571 C 15.3568 137.579 15.6443 130.579 16.4557 123.631 L 16.4557 123.631 Z" stroke-linecap="round" /></g><g transform="matrix(1 0 0 1 -29.74 -3.88)"  ><path style="stroke: none; stroke-width: 1; stroke-dasharray: none; stroke-linecap: butt; stroke-dashoffset: 0; stroke-linejoin: miter; stroke-miterlimit: 4; fill: rgb(78,102,206); fill-rule: nonzero; opacity: 1;"  transform=" translate(-160.76, -180.62)" d="M 7.05585 152.671 C 7.33585 153.331 8.25585 153.571 9.05585 153.711 C 15.0559 154.951 36.6559 154.251 43.3559 153.171 C 44.1159 153.031 45.5558 152.811 45.9758 152.251 C 47.5358 150.131 46.8759 117.011 45.0559 115.091 C 43.5159 113.491 12.1159 113.351 9.17585 115.271 C 8.78873 115.643 8.54156 116.138 8.47585 116.671 C 6.93585 122.711 6.45585 151.191 7.05585 152.671 L 7.05585 152.671 Z M 9.93585 116.371 C 12.6959 114.871 43.3159 114.371 44.5359 115.531 C 45.7559 116.691 45.9358 147.991 44.7758 151.351 C 40.9158 152.591 17.1559 153.591 8.47585 152.071 C 8.07585 150.711 8.43585 120.651 9.93585 116.371 L 9.93585 116.371 Z M 311.716 111.851 C 312.492 112.739 313.32 113.58 314.196 114.371 C 314.216 114.405 314.243 114.434 314.276 114.457 C 314.308 114.479 314.345 114.495 314.384 114.502 C 314.423 114.51 314.463 114.509 314.501 114.499 C 314.54 114.49 314.576 114.473 314.607 114.449 C 314.639 114.424 314.664 114.394 314.683 114.359 C 314.702 114.324 314.713 114.286 314.715 114.246 C 314.718 114.207 314.712 114.167 314.699 114.13 C 314.685 114.093 314.664 114.059 314.636 114.031 C 313.094 111.009 310.917 108.355 308.256 106.251 C 308.205 106.195 308.135 106.162 308.06 106.158 C 307.985 106.154 307.912 106.18 307.856 106.231 C 307.8 106.281 307.767 106.352 307.763 106.427 C 307.759 106.502 307.785 106.575 307.836 106.631 C 308.958 108.492 310.257 110.24 311.716 111.851 L 311.716 111.851 Z M 291.416 119.351 C 292.21 116.314 292.34 113.142 291.796 110.051 C 291.796 109.977 291.766 109.905 291.714 109.853 C 291.661 109.8 291.59 109.771 291.516 109.771 C 291.442 109.771 291.37 109.8 291.318 109.853 C 291.265 109.905 291.236 109.977 291.236 110.051 C 290.982 111.21 290.815 112.387 290.736 113.571 C 290.527 115.481 290.567 117.411 290.856 119.311 C 290.816 119.691 291.376 119.731 291.416 119.351 Z M 265.356 117.091 C 266.257 115.79 267.014 114.395 267.616 112.931 C 268.301 111.492 268.805 109.974 269.116 108.411 C 269.107 108.362 269.085 108.317 269.053 108.279 C 269.021 108.242 268.979 108.213 268.932 108.197 C 268.886 108.181 268.835 108.177 268.787 108.187 C 268.738 108.196 268.693 108.218 268.656 108.251 C 268.456 108.571 267.836 109.491 267.456 110.251 C 266.279 112.361 265.417 114.632 264.896 116.991 C 264.86 117.026 264.835 117.071 264.822 117.12 C 264.81 117.168 264.811 117.22 264.825 117.268 C 264.839 117.316 264.866 117.36 264.903 117.394 C 264.94 117.428 264.985 117.452 265.034 117.463 C 265.083 117.473 265.134 117.471 265.182 117.455 C 265.23 117.439 265.272 117.41 265.305 117.372 C 265.338 117.334 265.36 117.288 265.369 117.238 C 265.378 117.189 265.374 117.138 265.356 117.091 L 265.356 117.091 Z M 141.496 255.051 C 152.076 255.731 152.216 244.291 141.496 246.111 C 134.656 246.471 136.756 254.691 141.496 255.051 Z M 141.496 246.711 C 150.436 246.251 149.716 254.031 141.496 253.531 C 138.656 253.391 136.156 247.611 141.576 246.711 L 141.496 246.711 Z M 180.176 248.851 C 190.796 249.531 190.896 238.091 180.176 239.911 C 173.416 240.251 175.456 248.491 180.176 248.851 Z M 180.176 240.511 C 189.116 240.051 188.416 247.831 180.176 247.331 C 177.376 247.191 174.856 241.411 180.256 240.511 L 180.176 240.511 Z M 202.896 253.731 C 213.496 254.411 213.616 242.971 202.896 244.771 C 196.116 245.151 198.156 253.371 202.896 253.731 Z M 202.896 245.391 C 211.836 244.931 211.136 252.711 202.896 252.211 C 200.096 252.071 197.556 246.251 202.976 245.391 L 202.896 245.391 Z M 209.076 237.371 C 219.656 238.051 219.816 226.611 209.076 228.431 C 202.296 228.791 204.356 237.031 209.076 237.371 Z M 209.076 229.051 C 218.016 228.591 217.296 236.351 209.076 235.871 C 206.276 235.711 203.736 229.931 209.156 229.051 L 209.076 229.051 Z M 129.316 212.571 C 132.059 213.233 134.949 212.908 137.476 211.651 C 141.476 209.491 141.656 204.571 139.296 200.731 C 135.636 194.731 128.016 195.351 125.296 199.651 C 124.131 201.721 123.741 204.139 124.196 206.471 C 124.466 207.837 125.077 209.112 125.972 210.179 C 126.867 211.245 128.017 212.068 129.316 212.571 Z M 125.696 206.251 C 125.288 204.272 125.563 202.213 126.476 200.411 C 127.436 199.034 128.842 198.031 130.457 197.571 C 132.071 197.112 133.795 197.225 135.336 197.891 C 139.456 200.211 141.636 208.011 136.776 210.391 C 134.61 211.426 132.16 211.708 129.816 211.191 C 128.775 210.771 127.854 210.101 127.135 209.239 C 126.416 208.377 125.922 207.35 125.696 206.251 L 125.696 206.251 Z" stroke-linecap="round" /></g><g transform="matrix(1 0 0 1 -23.14 24.3)"  ><path style="stroke: none; stroke-width: 1; stroke-dasharray: none; stroke-linecap: butt; stroke-dashoffset: 0; stroke-linejoin: miter; stroke-miterlimit: 4; fill: rgb(78,102,206); fill-rule: nonzero; opacity: 1;"  transform=" translate(-167.36, -208.8)" d="M 129.896 201.231 C 129.656 200.831 128.376 200.471 128.476 201.691 C 128.576 202.911 130.656 202.451 129.896 201.231 Z M 134.356 201.271 C 134.796 200.571 133.056 199.271 132.876 200.931 C 132.816 201.471 133.576 202.451 134.356 201.271 Z M 129.376 206.251 C 128.636 206.751 130.936 209.051 133.776 207.771 C 134.213 207.592 134.592 207.295 134.87 206.914 C 135.149 206.533 135.317 206.082 135.356 205.611 C 135.368 205.573 135.372 205.533 135.368 205.493 C 135.364 205.453 135.353 205.415 135.334 205.379 C 135.316 205.344 135.291 205.313 135.26 205.287 C 135.229 205.262 135.194 205.243 135.156 205.231 C 135.118 205.219 135.078 205.215 135.038 205.218 C 134.998 205.222 134.96 205.234 134.924 205.252 C 134.889 205.271 134.858 205.296 134.832 205.327 C 134.807 205.357 134.788 205.393 134.776 205.431 C 134.092 205.987 133.28 206.363 132.413 206.524 C 131.547 206.685 130.653 206.625 129.816 206.351 C 129.767 206.283 129.696 206.236 129.615 206.217 C 129.534 206.199 129.449 206.211 129.376 206.251 L 129.376 206.251 Z M 153.516 216.531 C 155.336 217.291 163.956 217.071 165.376 215.271 C 165.736 214.831 165.496 214.391 165.236 213.891 C 164.356 212.211 159.456 204.011 157.696 204.311 C 155.936 204.611 154.176 209.311 153.696 210.851 C 153.216 212.391 152.056 215.911 153.516 216.531 L 153.516 216.531 Z M 155.516 208.891 C 155.776 208.111 156.896 205.071 157.696 204.891 C 158.496 204.711 163.696 214.291 163.816 214.491 C 160.654 215.325 157.363 215.556 154.116 215.171 C 154.307 213.018 154.806 210.903 155.596 208.891 L 155.516 208.891 Z M 205.436 112.451 C 205.406 112.268 205.312 112.102 205.171 111.981 C 205.03 111.861 204.851 111.795 204.666 111.795 C 204.48 111.795 204.301 111.861 204.16 111.981 C 204.019 112.102 203.925 112.268 203.896 112.451 C 203.915 112.919 203.996 113.383 204.136 113.831 C 204.152 113.942 204.192 114.047 204.253 114.141 C 204.313 114.235 204.394 114.315 204.488 114.375 C 204.582 114.435 204.688 114.474 204.799 114.49 C 204.91 114.506 205.023 114.497 205.13 114.465 C 205.237 114.433 205.336 114.379 205.42 114.305 C 205.505 114.232 205.572 114.141 205.618 114.039 C 205.664 113.937 205.688 113.827 205.687 113.715 C 205.687 113.603 205.663 113.492 205.616 113.391 C 205.526 113.084 205.465 112.769 205.436 112.451 L 205.436 112.451 Z M 209.716 119.231 C 210.228 119.003 210.696 118.684 211.096 118.291 C 211.416 117.991 211.276 117.651 210.816 117.731 L 209.476 118.011 C 209.209 117.037 209.042 116.038 208.976 115.031 C 208.976 114.271 208.636 111.831 208.236 111.671 C 207.836 111.511 207.736 112.291 207.616 112.971 C 207.256 115.251 207.556 120.071 209.716 119.231 L 209.716 119.231 Z M 213.016 111.911 C 213.045 112.094 213.139 112.26 213.28 112.38 C 213.421 112.5 213.6 112.566 213.786 112.566 C 213.971 112.566 214.15 112.5 214.291 112.38 C 214.432 112.26 214.526 112.094 214.556 111.911 L 214.556 110.811 C 214.531 110.608 214.431 110.421 214.275 110.288 C 214.12 110.155 213.92 110.084 213.716 110.091 C 213.511 110.111 213.321 110.21 213.187 110.366 C 213.053 110.523 212.984 110.725 212.996 110.931 C 212.916 111.071 213.016 111.911 213.016 111.911 L 213.016 111.911 Z M 213.796 120.491 C 213.516 120.491 213.796 120.491 212.296 121.671 C 212.151 121.789 211.997 121.896 211.836 121.991 C 210.356 122.851 209.676 122.371 209.536 122.811 C 209.396 123.251 210.576 123.951 211.876 123.631 C 213.996 123.111 214.336 120.651 213.796 120.491 L 213.796 120.491 Z M 68.9957 124.531 C 69.2157 125.211 70.0557 125.511 70.7557 125.671 C 76.4557 127.111 96.8957 126.291 102.976 125.091 C 103.736 124.931 104.976 124.671 105.436 124.051 C 106.876 121.671 106.176 84.7308 104.516 82.6508 C 102.856 80.5708 73.5757 80.8308 70.8957 82.9108 C 68.8957 84.5108 68.4357 122.891 68.9957 124.531 L 68.9957 124.531 Z M 101.196 106.531 C 101.792 106.317 102.429 106.24 103.059 106.306 C 103.689 106.371 104.296 106.578 104.836 106.911 C 104.921 112.371 104.714 117.832 104.216 123.271 L 103.816 123.411 C 102.452 118.319 99.6792 113.716 95.8157 110.131 C 97.4663 108.713 99.2709 107.485 101.196 106.471 L 101.196 106.531 Z M 93.8557 90.5308 C 97.1557 92.6508 97.0557 98.0908 91.2957 98.1508 C 87.7957 98.1508 86.2957 96.4708 86.2957 94.4708 C 86.2748 93.583 86.5017 92.7068 86.9509 91.9406 C 87.4001 91.1745 88.0539 90.5486 88.8389 90.1333 C 89.624 89.7179 90.5092 89.5295 91.3953 89.5891 C 92.2814 89.6487 93.1334 89.9541 93.8557 90.4708 L 93.8557 90.5308 Z M 74.1357 107.331 C 79.9957 103.831 84.3357 103.631 90.1357 107.331 C 95.3157 110.671 100.996 117.331 102.356 123.751 C 96.3557 124.831 73.3157 125.751 70.3557 124.131 C 70.0957 123.051 69.9957 111.731 69.9957 110.491 C 71.2681 109.286 72.6547 108.207 74.1357 107.271 L 74.1357 107.331 Z M 265.536 330.691 C 264.609 330.761 263.691 330.922 262.796 331.171 C 261.856 331.531 261.036 332.111 261.496 333.011 C 262.076 334.298 262.961 335.424 264.076 336.291 C 264.356 336.591 264.796 336.151 264.516 335.851 C 264.236 335.551 264.196 334.931 263.076 332.711 C 264.027 332.299 264.943 331.81 265.816 331.251 C 265.873 331.205 265.913 331.141 265.929 331.07 C 265.945 330.998 265.935 330.923 265.903 330.857 C 265.87 330.792 265.815 330.739 265.749 330.709 C 265.682 330.679 265.607 330.672 265.536 330.691 Z M 261.476 324.951 C 261.094 324.917 260.711 324.994 260.372 325.171 C 260.032 325.349 259.751 325.62 259.562 325.953 C 259.372 326.286 259.282 326.666 259.302 327.049 C 259.322 327.431 259.452 327.8 259.676 328.111 C 259.693 328.18 259.733 328.241 259.79 328.284 C 259.846 328.328 259.915 328.351 259.986 328.351 C 260.057 328.351 260.126 328.328 260.182 328.284 C 260.238 328.241 260.278 328.18 260.296 328.111 C 260.297 327.602 260.431 327.102 260.683 326.661 C 260.935 326.219 261.298 325.85 261.736 325.591 C 262.036 325.371 261.976 324.851 261.476 324.951 L 261.476 324.951 Z M 210.016 126.091 C 209.807 126.084 209.602 126.146 209.431 126.267 C 209.261 126.387 209.134 126.56 209.071 126.759 C 209.008 126.958 209.011 127.173 209.08 127.37 C 209.15 127.567 209.282 127.736 209.456 127.851 C 209.664 127.983 209.916 128.03 210.158 127.981 C 210.4 127.933 210.614 127.793 210.756 127.591 C 210.846 127.449 210.897 127.286 210.906 127.119 C 210.915 126.951 210.881 126.784 210.806 126.633 C 210.732 126.483 210.62 126.354 210.482 126.259 C 210.344 126.164 210.183 126.106 210.016 126.091 L 210.016 126.091 Z M 213.536 127.411 C 213.284 127.435 213.05 127.55 212.877 127.734 C 212.704 127.918 212.604 128.158 212.596 128.411 C 212.594 128.597 212.647 128.78 212.749 128.936 C 212.851 129.092 212.997 129.214 213.168 129.287 C 213.339 129.36 213.529 129.38 213.712 129.345 C 213.895 129.31 214.063 129.222 214.196 129.091 C 214.344 128.96 214.448 128.788 214.494 128.596 C 214.541 128.404 214.527 128.203 214.455 128.019 C 214.383 127.836 214.256 127.679 214.091 127.57 C 213.927 127.461 213.733 127.406 213.536 127.411 Z M 213.476 124.391 C 213.436 124.533 213.429 124.683 213.456 124.828 C 213.484 124.974 213.544 125.111 213.633 125.229 C 213.722 125.347 213.838 125.443 213.97 125.509 C 214.102 125.575 214.248 125.61 214.396 125.611 C 214.537 125.606 214.676 125.572 214.803 125.511 C 214.931 125.45 215.044 125.363 215.136 125.256 C 215.229 125.149 215.297 125.024 215.339 124.889 C 215.38 124.754 215.392 124.611 215.376 124.471 C 215.332 124.257 215.217 124.063 215.051 123.922 C 214.884 123.78 214.675 123.698 214.457 123.689 C 214.239 123.68 214.023 123.744 213.846 123.871 C 213.668 123.998 213.538 124.181 213.476 124.391 L 213.476 124.391 Z M 218.916 128.511 C 219.123 128.517 219.326 128.454 219.493 128.333 C 219.661 128.212 219.784 128.039 219.843 127.84 C 219.903 127.642 219.895 127.43 219.821 127.236 C 219.747 127.043 219.612 126.879 219.436 126.771 C 219.292 126.683 219.127 126.634 218.958 126.63 C 218.789 126.627 218.622 126.667 218.474 126.748 C 218.326 126.829 218.202 126.948 218.115 127.093 C 218.027 127.237 217.979 127.402 217.976 127.571 C 217.981 127.819 218.082 128.055 218.257 128.23 C 218.432 128.405 218.668 128.506 218.916 128.511 L 218.916 128.511 Z M 220.656 124.051 C 220.79 124.023 220.916 123.968 221.027 123.888 C 221.137 123.808 221.229 123.705 221.297 123.586 C 221.365 123.468 221.406 123.336 221.419 123.2 C 221.432 123.064 221.416 122.927 221.371 122.798 C 221.327 122.669 221.255 122.55 221.161 122.451 C 221.068 122.352 220.954 122.274 220.827 122.222 C 220.701 122.17 220.565 122.146 220.428 122.151 C 220.292 122.156 220.158 122.19 220.036 122.251 C 219.827 122.355 219.663 122.531 219.575 122.747 C 219.487 122.962 219.48 123.203 219.556 123.423 C 219.632 123.643 219.785 123.828 219.988 123.944 C 220.19 124.06 220.427 124.098 220.656 124.051 Z" stroke-linecap="round" /></g><g transform="matrix(1 0 0 1 0.1 -0.22)"  ><path style="stroke: none; stroke-width: 1; stroke-dasharray: none; stroke-linecap: butt; stroke-dashoffset: 0; stroke-linejoin: miter; stroke-miterlimit: 4; fill: rgb(78,102,206); fill-rule: nonzero; opacity: 1;"  transform=" translate(-190.6, -184.28)" d="M 370.396 221.591 C 366.585 220.441 362.491 220.675 358.836 222.251 C 367.096 211.651 371.536 201.051 371.536 186.771 C 371.536 178.671 370.736 171.051 363.076 168.511 C 358.356 166.931 350.096 169.391 345.616 171.671 C 345.616 163.191 346.316 51.4108 343.276 43.3308 C 343.036 42.6308 341.676 42.3308 340.876 42.1308 C 332.256 40.0308 290.876 36.2708 288.876 38.0108 C 287.576 39.1308 288.016 47.5908 288.096 49.2708 C 285.396 49.2708 272.536 49.0908 270.816 51.1508 C 268.156 54.2908 253.996 90.8108 254.816 94.8708 C 254.855 95.1001 254.967 95.3105 255.136 95.4708 C 263.616 103.731 319.696 102.231 322.256 97.0908 C 323.916 94.0908 312.656 54.5108 310.656 52.2508 C 308.656 49.9908 291.996 49.3908 288.816 49.3508 C 288.606 46.0138 288.727 42.6642 289.176 39.3508 C 289.376 38.5108 289.516 38.5908 289.836 38.5308 C 295.196 37.5508 338.936 41.8708 342.216 43.9308 C 343.696 48.4908 343.716 77.5908 344.376 172.471 C 338.674 175.732 334.162 180.728 331.496 186.731 C 328.856 186.331 325.256 189.331 323.376 191.211 C 320.813 193.827 318.583 196.749 316.736 199.911 C 316.393 194.125 315.434 188.393 313.876 182.811 C 309.336 170.591 295.656 148.811 286.116 158.011 C 282.498 162.088 280.04 167.061 278.996 172.411 C 275.516 169.106 271.686 166.189 267.576 163.711 C 265.156 155.207 259.807 147.833 252.476 142.891 C 249.496 140.797 246.337 138.97 243.036 137.431 C 243.01 137.367 242.976 137.307 242.936 137.251 C 240.936 134.991 235.796 134.311 232.736 134.191 C 233.016 131.891 231.036 121.891 230.556 119.451 C 231.152 119.462 231.74 119.31 232.256 119.011 C 234.256 118.891 242.096 118.511 243.516 117.251 C 243.777 116.953 243.944 116.584 243.996 116.191 C 244.329 114.132 244.542 112.055 244.636 109.971 C 245.616 95.1908 244.956 95.9708 245.416 95.9708 C 251.736 98.3108 253.816 92.2108 245.416 89.2508 L 245.416 88.6508 C 247.876 88.1108 250.736 86.9708 249.596 84.6508 C 249.133 83.9979 248.512 83.4724 247.792 83.1228 C 247.072 82.7732 246.275 82.6109 245.476 82.6508 C 245.476 77.5708 246.816 6.47084 243.616 2.65084 C 240.036 -1.60916 130.656 0.490839 126.916 4.45084 C 124.656 6.73084 126.056 107.171 128.656 116.731 C 128.796 117.231 129.336 117.331 129.856 117.411 C 138.516 118.811 189.856 119.411 201.856 119.531 C 202.11 120.822 202.437 122.097 202.836 123.351 C 203.754 125.64 205.113 127.726 206.836 129.491 C 208.343 130.544 210.119 131.148 211.956 131.231 C 211.356 132.591 210.196 135.111 209.596 136.371 C 203.954 138.033 198.569 140.47 193.596 143.611 C 180.156 152.871 170.216 170.111 162.656 184.251 C 161.241 187.051 160.018 189.945 158.996 192.911 C 150.676 192.691 116.476 193.891 115.576 194.911 C 115.116 195.351 115.576 196.271 115.696 197.091 C 117.256 202.871 123.076 221.711 125.476 228.471 C 121.856 229.051 118.236 229.791 114.616 230.471 C 114.519 230.204 114.406 229.943 114.276 229.691 C 114.226 229.575 114.154 229.47 114.063 229.383 C 113.971 229.295 113.864 229.227 113.746 229.182 C 113.628 229.137 113.502 229.117 113.376 229.122 C 113.25 229.126 113.126 229.157 113.011 229.21 C 112.897 229.264 112.795 229.34 112.711 229.434 C 112.627 229.528 112.562 229.639 112.522 229.758 C 112.481 229.878 112.465 230.004 112.474 230.13 C 112.484 230.256 112.518 230.379 112.576 230.491 C 112.615 230.575 112.648 230.662 112.676 230.751 C 108.396 231.331 105.856 231.271 96.4158 232.611 C 96.3511 232.396 96.2114 232.211 96.0222 232.09 C 95.833 231.969 95.6067 231.92 95.3843 231.951 C 95.1619 231.983 94.9581 232.093 94.8098 232.261 C 94.6615 232.43 94.5785 232.646 94.5758 232.871 C 89.0958 233.691 84.1958 234.551 78.3758 235.631 C 78.2968 235.379 78.2033 235.132 78.0958 234.891 C 77.9947 234.663 77.8087 234.483 77.5772 234.389 C 77.3457 234.296 77.087 234.297 76.8558 234.391 C 76.7411 234.439 76.6371 234.509 76.5497 234.598 C 76.4624 234.686 76.3934 234.791 76.3469 234.906 C 76.3004 235.022 76.2773 235.145 76.2788 235.27 C 76.2803 235.394 76.3065 235.517 76.3558 235.631 C 76.3558 235.751 76.3558 235.851 76.4958 235.971 C 71.5358 236.891 66.4958 237.851 61.6358 238.751 L 61.6358 237.911 C 61.5967 237.667 61.4688 237.447 61.2768 237.292 C 61.0848 237.136 60.8423 237.058 60.5958 237.071 C 60.4721 237.083 60.3521 237.12 60.2428 237.179 C 60.1334 237.238 60.0369 237.319 59.9587 237.415 C 59.8806 237.512 59.8224 237.623 59.7876 237.743 C 59.7528 237.862 59.742 237.987 59.7558 238.111 C 59.7759 238.437 59.7759 238.764 59.7558 239.091 C 57.2958 239.531 54.8158 239.931 52.3358 240.331 C 52.2605 240.128 52.1175 239.957 51.9309 239.848 C 51.7443 239.738 51.5256 239.696 51.3117 239.729 C 51.0978 239.762 50.9018 239.868 50.7568 240.028 C 50.6118 240.189 50.5267 240.395 50.5158 240.611 C 34.0758 243.151 37.5158 242.331 32.9158 233.171 C 32.1369 231.074 30.811 229.223 29.0758 227.811 C 28.801 227.652 28.4972 227.55 28.1823 227.51 C 27.8673 227.47 27.5476 227.494 27.242 227.58 C 26.9364 227.666 26.651 227.812 26.4026 228.009 C 26.1543 228.207 25.948 228.452 25.7958 228.731 C 24.5158 230.531 25.4158 236.591 25.7958 238.911 C 26.1758 241.231 28.2158 251.991 29.6158 253.391 C 30.1358 253.911 31.8358 253.951 33.3558 254.031 L 33.3558 254.491 C 19.4758 255.791 1.87584 260.691 0.63584 274.651 C -0.28416 285.111 8.19584 289.251 18.4158 291.471 C 17.7758 294.971 9.21584 340.671 9.67584 343.331 C 10.2358 346.351 17.4758 348.111 18.6958 344.851 C 20.5758 339.751 27.4358 298.311 28.3358 292.851 C 38.5668 293.78 48.869 293.578 59.0558 292.251 C 59.9758 297.691 66.7958 338.891 68.6758 343.991 C 69.8758 347.231 77.1358 345.471 77.6758 342.471 C 78.1558 339.811 69.6758 294.591 68.8558 290.111 C 80.2358 286.711 91.8358 279.751 90.2558 267.931 C 104.816 267.271 121.476 265.471 135.876 263.591 C 135.862 266.169 136.466 268.713 137.636 271.011 C 139.056 273.671 144.156 275.491 147.016 276.411 C 146.496 279.191 136.756 330.971 137.256 333.791 C 137.756 336.611 145.056 338.551 146.256 335.311 C 148.256 330.011 155.536 285.551 156.676 278.911 C 178.836 283.491 189.116 282.151 197.056 281.251 C 197.256 283.631 201.056 332.831 202.316 335.251 C 203.636 338.011 211.096 337.811 211.416 334.371 C 211.916 328.831 207.416 285.371 206.996 279.951 C 219.187 278.402 231.163 275.477 242.696 271.231 C 245.096 280.371 251.196 303.231 251.716 305.091 C 245.91 307.37 240.999 311.468 237.716 316.771 C 234.192 318.341 230.759 320.111 227.436 322.071 C 225.6 322.877 223.834 323.834 222.156 324.931 C 220.57 325.935 219.208 327.256 218.156 328.811 C 218.04 329.069 217.98 329.348 217.98 329.631 C 217.98 329.914 218.04 330.193 218.156 330.451 C 218.643 331.442 219.323 332.326 220.156 333.051 C 223.816 336.231 225.676 334.731 232.636 344.671 C 236.196 349.731 237.496 356.191 241.956 361.651 C 245.096 365.491 246.656 369.651 253.956 367.791 C 257.956 366.791 260.156 365.051 265.616 363.571 C 268.396 362.831 271.256 362.291 274.036 361.451 C 291.276 356.291 287.216 357.691 299.016 356.011 C 301.016 355.711 303.156 355.251 305.216 354.931 C 308.828 354.636 312.453 354.529 316.076 354.611 C 316.532 354.492 316.941 354.236 317.248 353.879 C 317.555 353.522 317.746 353.079 317.796 352.611 C 317.971 351.56 318.018 350.493 317.936 349.431 C 318.141 346.998 317.536 344.565 316.216 342.511 C 325.456 344.111 349.796 342.191 351.836 340.991 C 352.025 340.894 352.179 340.74 352.276 340.551 C 353.476 337.971 355.176 314.891 355.196 306.051 C 355.866 305.944 356.533 305.817 357.196 305.671 C 358.596 305.331 358.796 298.791 357.916 297.011 C 357.844 296.837 357.735 296.681 357.597 296.553 C 357.459 296.425 357.295 296.329 357.116 296.271 C 351.396 294.971 335.736 295.291 329.576 295.531 C 329.351 288.079 328.542 280.656 327.156 273.331 C 334.571 271.627 341.779 269.126 348.656 265.871 C 361.476 259.531 368.916 257.031 377.496 244.651 C 383.636 235.851 380.536 224.951 370.396 221.591 L 370.396 221.591 Z M 310.176 52.5708 C 312.176 54.5708 321.516 90.5708 321.356 96.1308 C 321.236 100.731 264.536 102.131 256.356 94.5508 C 256.456 88.2908 269.796 54.2908 271.776 51.8908 C 273.756 49.4908 307.576 49.7708 310.176 52.5708 L 310.176 52.5708 Z M 350.456 171.231 C 353.796 170.131 359.256 168.831 362.596 169.951 C 369.516 172.251 369.996 179.511 369.996 186.771 C 369.996 201.851 364.916 212.611 355.776 223.631 C 351.576 225.947 347.747 228.88 344.416 232.331 C 346.213 224.843 346.653 217.094 345.716 209.451 C 345.561 208.092 345.273 206.753 344.856 205.451 C 346.249 201.234 347.974 197.135 350.016 193.191 C 353.236 187.191 354.536 187.291 354.016 186.791 C 353.99 186.761 353.957 186.737 353.921 186.721 C 353.885 186.704 353.846 186.696 353.806 186.696 C 353.766 186.696 353.727 186.704 353.691 186.721 C 353.654 186.737 353.622 186.761 353.596 186.791 C 349.365 191.568 346.135 197.144 344.096 203.191 C 342.236 198.231 337.436 189.331 332.736 187.191 C 334.417 183.444 336.861 180.09 339.912 177.342 C 342.964 174.594 346.555 172.512 350.456 171.231 L 350.456 171.231 Z M 324.336 192.251 C 326.034 190.332 328.249 188.943 330.716 188.251 C 334.516 187.651 343.436 201.531 344.176 209.731 C 345.236 218.126 344.555 226.65 342.176 234.771 C 340.174 236.953 338.311 239.257 336.596 241.671 C 332.816 247.031 330.796 248.111 327.636 256.691 C 328.176 235.451 329.856 208.171 329.856 207.271 C 329.876 207.225 329.884 207.174 329.88 207.124 C 329.875 207.074 329.858 207.026 329.831 206.984 C 329.803 206.943 329.765 206.908 329.72 206.885 C 329.676 206.862 329.626 206.85 329.576 206.851 C 329.236 206.851 329.236 207.271 329.196 207.591 C 328.656 212.691 326.656 246.251 326.256 259.271 C 322.716 242.211 314.256 235.771 311.396 231.631 C 310.296 217.851 314.456 201.991 324.336 192.251 L 324.336 192.251 Z M 284.336 207.591 C 286.336 213.091 289.916 220.911 294.336 224.691 C 289.774 223.732 285.041 223.966 280.596 225.371 C 281.616 221.791 283.796 211.891 284.376 207.531 L 284.336 207.591 Z M 277.836 230.251 C 277.8 229.711 277.933 229.173 278.216 228.711 C 282.216 223.431 303.796 223.291 316.216 239.951 C 322.224 248.437 325.541 258.535 325.736 268.931 C 320.196 259.571 300.996 241.211 288.616 236.931 C 288.578 236.918 288.537 236.912 288.497 236.915 C 288.457 236.917 288.418 236.927 288.382 236.945 C 288.345 236.963 288.313 236.987 288.286 237.017 C 288.259 237.048 288.239 237.083 288.226 237.121 C 288.213 237.159 288.207 237.199 288.21 237.239 C 288.212 237.28 288.222 237.319 288.24 237.355 C 288.258 237.391 288.282 237.424 288.312 237.451 C 288.343 237.477 288.378 237.498 288.416 237.511 C 302.996 242.851 325.916 267.691 325.616 272.751 C 324.378 272.727 323.14 272.807 321.916 272.991 C 320.182 272.99 318.45 272.856 316.736 272.591 C 311.256 271.651 307.736 269.131 299.396 261.291 C 293.526 255.923 288.077 250.112 283.096 243.911 C 281.196 240.611 277.776 234.111 277.836 230.251 L 277.836 230.251 Z M 280.236 173.191 C 281.158 167.916 283.526 163 287.076 158.991 C 295.356 150.991 308.376 172.531 312.356 183.251 C 314.044 189.511 315.05 195.935 315.356 202.411 C 311.477 210.814 309.673 220.025 310.096 229.271 C 304.376 220.631 296.416 201.851 293.516 187.271 C 292.976 184.691 290.796 171.071 290.796 169.491 C 291.036 169.091 290.196 168.631 290.156 169.491 C 290.641 178.324 291.933 187.093 294.016 195.691 C 297.074 206.406 301.355 216.734 306.776 226.471 C 311.096 234.471 311.956 231.391 302.416 227.011 C 300.48 226.165 298.472 225.495 296.416 225.011 C 295.348 224.227 294.356 223.343 293.456 222.371 C 285.556 213.231 278.316 187.771 280.236 173.211 L 280.236 173.191 Z M 129.856 235.191 C 132.796 235.351 136.076 234.531 137.296 231.891 L 151.596 232.251 C 151.464 233.54 151.836 234.83 152.633 235.852 C 153.431 236.873 154.593 237.547 155.876 237.731 C 157.047 237.885 158.238 237.795 159.374 237.468 C 160.509 237.141 161.565 236.584 162.476 235.831 C 162.95 235.413 163.319 234.889 163.552 234.302 C 163.785 233.714 163.875 233.08 163.816 232.451 L 173.236 232.591 C 173.736 233.311 201.716 230.051 204.216 228.871 C 205.456 228.291 205.096 226.251 204.376 225.091 C 204.616 225.091 204.496 225.091 204.776 225.551 C 204.945 225.968 205.23 226.329 205.596 226.591 C 209.022 227.009 212.498 226.604 215.736 225.411 C 216.376 224.971 216.296 224.451 216.156 223.631 C 233.916 221.111 232.436 221.631 242.516 219.311 C 243.076 219.191 235.516 221.811 231.016 224.231 C 228.844 225.375 226.827 226.793 225.016 228.451 C 220.456 232.831 210.416 264.291 202.396 265.811 C 192.601 267.452 182.627 267.735 172.756 266.651 C 173.04 265.952 173.112 265.184 172.963 264.444 C 172.813 263.704 172.449 263.025 171.916 262.491 C 171.081 261.725 170.104 261.132 169.041 260.744 C 167.977 260.356 166.847 260.182 165.716 260.231 C 162.236 260.231 160.496 262.371 161.116 265.151 C 151.962 263.673 142.925 261.541 134.076 258.771 C 133.196 256.251 130.316 238.251 129.856 235.191 L 129.856 235.191 Z M 129.536 231.591 L 135.536 231.851 C 134.813 232.56 133.94 233.098 132.98 233.423 C 132.021 233.749 131.001 233.854 129.996 233.731 C 129.916 233.511 129.756 232.631 129.536 231.591 Z M 162.336 232.431 C 162.346 232.564 162.346 232.698 162.336 232.831 C 162.278 233.321 162.105 233.791 161.83 234.201 C 161.555 234.611 161.187 234.951 160.756 235.191 C 159.285 236.038 157.583 236.395 155.896 236.211 C 155.081 236.043 154.339 235.625 153.772 235.016 C 153.206 234.407 152.844 233.636 152.736 232.811 C 152.726 232.631 152.726 232.451 152.736 232.271 L 162.336 232.431 Z M 180.916 217.671 L 176.096 218.271 C 190.796 198.591 182.456 207.471 180.916 217.671 Z M 175.136 219.671 L 181.136 218.991 C 181.636 219.871 186.436 221.431 187.356 221.731 C 187.18 222.065 187.033 222.413 186.916 222.771 C 182.616 222.451 178.096 222.151 173.416 221.991 L 175.136 219.671 Z M 214.756 224.251 C 212.033 225.025 209.204 225.363 206.376 225.251 C 204.221 220.291 202.377 215.201 200.856 210.011 C 203.146 208.005 205.893 206.591 208.856 205.891 C 209.736 207.991 214.656 222.131 214.756 224.251 L 214.756 224.251 Z M 203.936 223.711 C 192.696 224.411 189.936 224.811 188.156 224.371 C 188.036 219.511 196.376 216.991 201.216 216.211 C 202.176 219.151 203.176 221.831 203.936 223.691 L 203.936 223.711 Z M 180.836 228.091 C 183.116 227.771 200.836 225.411 203.116 225.951 C 203.394 226.429 203.526 226.978 203.496 227.531 C 200.736 228.371 174.036 231.931 173.796 231.951 C 173.541 231.176 173.406 230.367 173.396 229.551 L 173.396 229.391 C 174.396 229.371 170.656 229.491 180.836 228.071 L 180.836 228.091 Z M 172.256 223.331 C 176.256 223.491 180.436 223.711 186.656 224.211 C 186.656 224.751 186.656 225.251 187.216 225.651 C 187.776 226.051 189.216 225.471 180.376 227.131 C 177.881 227.468 175.427 228.065 173.056 228.911 C 171.856 222.851 171.796 223.871 172.256 223.311 L 172.256 223.331 Z M 171.376 266.031 C 161.076 264.951 161.776 265.311 161.756 264.871 C 161.697 264.343 161.783 263.808 162.005 263.326 C 162.227 262.843 162.576 262.43 163.016 262.131 C 165.256 260.671 172.656 262.431 171.376 266.011 L 171.376 266.031 Z M 241.576 137.511 C 241.036 137.931 222.436 152.071 219.696 153.791 C 218.31 151.63 216.78 149.566 215.116 147.611 C 217.356 145.131 232.436 134.751 232.436 134.751 C 233.076 134.751 239.216 135.411 241.576 137.491 L 241.576 137.511 Z M 202.016 140.251 C 204.462 139.262 206.975 138.447 209.536 137.811 C 213.536 147.511 212.496 145.391 213.176 147.111 C 210.256 148.424 207.411 149.9 204.656 151.531 C 203.436 148.631 201.616 143.311 202.016 140.251 Z M 244.016 80.3708 L 244.016 82.8908 C 238.016 83.6708 238.016 84.8908 238.016 84.1108 C 241.276 82.2508 243.376 81.7508 244.036 80.2508 L 244.016 80.3708 Z M 236.176 95.8908 C 235.768 95.5276 235.31 95.2246 234.816 94.9908 C 234.516 94.8308 234.816 94.9908 234.816 94.5308 C 234.891 94.1613 234.891 93.7804 234.816 93.4108 C 235.313 93.5418 235.822 93.6222 236.336 93.6508 C 236.236 94.2508 236.216 95.0908 236.196 95.8108 L 236.176 95.8908 Z M 229.656 85.1508 C 229.016 86.0108 228.256 86.8908 227.656 87.7908 C 228.541 84.284 230.383 81.092 232.976 78.5708 C 233.83 78.0212 234.645 77.4131 235.416 76.7508 C 237.896 73.8908 233.416 70.9708 229.776 74.2308 C 227.071 76.5544 225.219 79.715 224.516 83.2108 C 223.996 85.8708 224.776 85.5508 223.816 85.3108 C 222.937 84.9931 221.975 84.9931 221.096 85.3108 C 220.456 83.4308 216.256 83.4508 214.836 84.4708 C 214.256 84.8908 214.656 84.8108 214.196 84.4708 C 213.301 84.2192 212.361 84.1694 211.445 84.3251 C 210.528 84.4807 209.658 84.8379 208.896 85.3708 C 208.716 85.4908 208.076 86.2908 207.716 86.6708 C 206.929 86.6316 206.143 86.7682 205.416 87.0708 C 204.664 87.4154 204.075 88.0396 203.776 88.8108 L 203.776 89.2708 C 203.419 89.2059 203.053 89.2059 202.696 89.2708 C 201.349 89.8328 200.278 90.9037 199.716 92.2508 C 199.389 92.8638 199.297 93.5747 199.456 94.2508 C 197.716 95.1908 195.896 96.5508 196.196 98.5108 C 196.363 99.003 196.613 99.463 196.936 99.8708 C 196.436 100.231 195.076 100.391 195.356 103.431 L 193.856 103.311 C 192.816 98.0508 192.176 65.4308 192.696 65.0708 C 195.076 63.9708 232.056 63.8308 235.876 64.8908 C 236.326 69.4095 236.513 73.9505 236.436 78.4908 C 233.751 80.1926 231.449 82.4332 229.676 85.0708 L 229.656 85.1508 Z M 242.316 116.151 C 239.859 116.807 237.337 117.189 234.796 117.291 C 235.148 117.034 235.416 116.678 235.565 116.268 C 235.715 115.859 235.739 115.414 235.636 114.991 C 236.028 114.916 236.396 114.749 236.71 114.501 C 237.023 114.254 237.272 113.935 237.436 113.571 C 237.656 112.977 237.656 112.324 237.436 111.731 C 237.316 111.451 237.196 111.731 237.816 111.391 C 238.188 111.215 238.518 110.961 238.784 110.647 C 239.05 110.333 239.245 109.965 239.357 109.569 C 239.469 109.173 239.494 108.758 239.432 108.351 C 239.37 107.944 239.221 107.555 238.996 107.211 C 239.304 106.856 239.501 106.42 239.565 105.954 C 239.629 105.489 239.556 105.015 239.356 104.591 C 239.027 104.01 238.523 103.548 237.916 103.271 C 238.214 102.771 238.34 102.188 238.275 101.61 C 238.21 101.032 237.957 100.492 237.556 100.071 C 237.556 98.3508 237.716 96.1908 237.796 93.7708 C 239.858 93.7903 241.882 94.3341 243.676 95.3508 C 243.556 98.6108 243.116 113.111 242.336 116.071 L 242.316 116.151 Z M 129.936 116.151 C 127.256 104.651 125.616 6.77084 127.336 5.01084 C 130.656 1.37084 235.236 0.0308383 242.656 3.65084 C 243.022 4.95751 243.256 6.29751 243.356 7.65084 C 244.796 22.3508 244.376 63.6508 244.116 78.7908 C 243.176 76.5708 240.216 76.7908 237.976 77.6508 C 238.027 73.2282 237.807 68.8065 237.316 64.4108 C 237.294 64.1919 237.209 63.9841 237.07 63.8134 C 236.932 63.6427 236.746 63.5166 236.536 63.4508 C 233.036 62.1908 193.836 63.0308 192.276 64.5108 C 191.316 65.4508 191.656 100.511 192.696 103.971 C 192.759 104.118 192.861 104.244 192.992 104.336 C 193.123 104.428 193.276 104.481 193.436 104.491 C 193.996 104.491 195.296 104.671 195.736 104.691 C 196.076 105.311 196.616 105.431 196.916 105.691 C 196.739 105.837 196.6 106.026 196.513 106.238 C 196.426 106.451 196.393 106.682 196.416 106.911 C 196.524 107.949 196.927 108.934 197.576 109.751 C 198.536 110.891 199.416 110.551 200.396 110.551 C 200.596 112.211 201.016 114.951 201.636 117.991 C 187.316 118.011 136.416 117.251 129.956 116.011 L 129.936 116.151 Z M 213.676 130.151 C 213.451 129.965 213.167 129.866 212.876 129.871 C 211.142 129.839 209.447 129.356 207.956 128.471 C 206.37 126.862 205.101 124.969 204.216 122.891 C 202.662 117.612 201.683 112.18 201.296 106.691 C 201.476 104.211 203.976 101.151 208.496 100.211 C 212.06 99.5843 215.731 100.037 219.036 101.511 C 221.696 102.571 225.376 106.811 226.856 109.111 C 226.924 109.206 227.027 109.272 227.142 109.294 C 227.257 109.316 227.377 109.294 227.476 109.231 C 228.104 108.826 228.775 108.49 229.476 108.231 C 230.072 108.091 230.699 108.191 231.223 108.509 C 231.746 108.827 232.124 109.337 232.276 109.931 C 233.316 112.291 229.416 116.231 228.876 116.991 C 228.801 117.191 228.801 117.411 228.876 117.611 C 229.979 122.994 230.767 128.436 231.236 133.911 C 230.576 134.291 229.756 134.911 222.936 140.031 C 220.002 141.903 217.196 143.967 214.536 146.211 C 213.796 143.851 211.916 139.691 210.956 137.591 C 214.116 130.511 214.156 130.551 213.696 130.091 L 213.676 130.151 Z M 163.976 184.951 C 171.976 169.791 184.496 147.591 201.296 140.771 C 201.218 145.026 202.078 149.246 203.816 153.131 C 203.882 153.226 203.971 153.303 204.073 153.357 C 204.176 153.41 204.29 153.438 204.406 153.438 C 204.522 153.438 204.636 153.41 204.738 153.357 C 204.841 153.303 204.929 153.226 204.996 153.131 C 205.766 152.473 206.62 151.922 207.536 151.491 C 207.909 152.929 208.547 154.285 209.416 155.491 C 208.976 158.011 200.956 191.011 201.416 192.951 C 202.834 196.625 204.708 200.105 206.996 203.311 C 207.436 203.911 207.916 204.371 208.536 203.871 C 211.553 200.814 214.065 197.297 215.976 193.451 C 216.096 193.031 216.136 193.311 214.756 156.211 C 215.416 155.451 216.756 153.851 217.376 152.931 C 219.016 155.231 218.096 154.931 218.676 155.391 C 219.256 155.851 219.596 155.591 220.096 155.391 C 223.376 153.511 240.096 140.591 242.716 138.091 C 245.971 139.577 249.084 141.358 252.016 143.411 C 265.156 151.811 268.016 166.511 269.396 181.991 C 270.316 192.871 268.936 202.111 260.896 209.031 C 255.586 213.335 249.337 216.329 242.656 217.771 C 238.296 218.851 219.336 221.631 215.736 222.131 C 214.156 217.182 212.327 212.315 210.256 207.551 C 216.796 204.711 228.536 200.531 235.216 198.271 C 235.332 198.239 235.433 198.167 235.503 198.069 C 235.572 197.97 235.605 197.851 235.596 197.731 C 235.156 192.131 234.576 177.511 236.736 172.311 C 236.896 171.951 236.316 171.711 236.156 172.071 C 233.836 177.371 234.156 191.591 234.476 197.371 C 227.616 199.571 216.276 203.371 209.676 206.231 C 209.396 205.631 209.376 205.351 208.816 205.291 C 207.116 205.151 200.576 207.931 199.676 209.631 C 199.276 210.371 200.496 214.111 200.916 215.451 C 196.756 215.811 190.916 217.191 188.156 220.391 C 186.15 219.821 184.207 219.051 182.356 218.091 C 183.236 212.091 188.076 202.551 191.116 197.491 C 192.276 195.491 193.736 182.511 193.876 180.371 C 193.987 178.459 193.987 176.543 193.876 174.631 C 193.858 174.562 193.818 174.501 193.762 174.457 C 193.706 174.414 193.637 174.39 193.566 174.39 C 193.495 174.39 193.426 174.414 193.37 174.457 C 193.314 174.501 193.273 174.562 193.256 174.631 C 193.136 175.871 192.916 177.311 192.656 178.951 C 192.536 179.851 191.116 194.471 189.656 196.951 C 185.016 203.531 176.436 215.571 171.476 221.931 C 171.296 221.131 165.336 194.451 164.176 193.731 C 162.986 193.354 161.744 193.172 160.496 193.191 C 161.473 190.371 162.636 187.618 163.976 184.951 L 163.976 184.951 Z M 117.076 196.031 C 123.336 195.391 161.076 193.491 163.536 194.711 C 163.656 195.651 166.276 202.551 168.536 213.291 C 170.236 221.291 172.536 229.291 172.976 231.951 C 171.936 231.951 129.616 230.271 127.656 229.951 C 126.136 226.531 118.096 200.031 117.076 196.031 L 117.076 196.031 Z M 30.6558 252.111 C 29.4558 250.111 25.3358 231.911 27.0758 229.471 C 29.3158 226.351 33.0758 237.671 34.3158 239.891 C 36.7158 244.591 40.8758 243.511 51.0558 241.891 C 51.4158 242.951 51.5358 243.891 52.4558 243.891 C 52.6097 243.888 52.7607 243.848 52.8959 243.775 C 53.0312 243.701 53.1468 243.597 53.2331 243.469 C 53.3194 243.342 53.3737 243.195 53.3916 243.043 C 53.4095 242.89 53.3904 242.735 53.3358 242.591 C 53.1758 242.191 53.0558 241.811 52.9558 241.491 C 60.6158 240.271 59.7958 240.211 59.8158 240.531 C 59.8158 240.78 59.9149 241.019 60.0912 241.196 C 60.2674 241.372 60.5065 241.471 60.7558 241.471 C 61.0051 241.471 61.2442 241.372 61.4205 241.196 C 61.5968 241.019 61.6958 240.78 61.6958 240.531 L 61.6958 240.071 C 66.8158 239.151 71.9158 238.071 77.0358 237.211 C 77.0358 237.491 77.1758 237.751 77.2758 238.011 C 77.3581 238.247 77.5307 238.441 77.7557 238.549 C 77.9808 238.658 78.2398 238.673 78.4758 238.591 C 78.7119 238.509 78.9056 238.336 79.0144 238.111 C 79.1231 237.886 79.1381 237.627 79.0558 237.391 C 79.0558 237.211 79.0558 237.031 78.8958 236.871 C 84.4758 235.831 89.3158 234.871 94.7558 234.151 L 94.7558 235.511 C 94.7663 235.634 94.8011 235.754 94.858 235.864 C 94.915 235.974 94.993 236.072 95.0877 236.152 C 95.1824 236.232 95.292 236.292 95.41 236.33 C 95.5281 236.367 95.6524 236.381 95.7758 236.371 C 95.8993 236.36 96.0194 236.326 96.1295 236.269 C 96.2395 236.212 96.3372 236.134 96.4171 236.039 C 96.4969 235.944 96.5574 235.835 96.5949 235.717 C 96.6324 235.599 96.6463 235.474 96.6358 235.351 L 96.6358 233.891 C 106.636 232.431 108.456 232.611 113.276 231.891 L 113.616 232.831 C 113.732 233.031 113.917 233.182 114.137 233.257 C 114.356 233.332 114.595 233.324 114.809 233.237 C 115.023 233.149 115.199 232.987 115.303 232.78 C 115.407 232.573 115.433 232.335 115.376 232.111 C 115.3 231.941 115.234 231.767 115.176 231.591 C 118.796 230.991 122.396 230.231 126.036 229.591 C 126.676 231.271 126.596 231.251 128.556 231.411 C 128.776 231.411 129.496 239.591 132.136 254.271 C 109.656 255.511 66.5558 256.271 45.3358 252.911 C 44.0558 252.711 42.0558 252.631 42.2558 252.631 C 39.9558 249.571 35.7358 243.751 33.9358 247.071 C 33.1019 248.661 32.8271 250.486 33.1558 252.251 C 32.3202 252.265 31.4847 252.218 30.6558 252.111 L 30.6558 252.111 Z M 52.9158 255.391 C 50.5785 255.971 48.2806 256.699 46.0358 257.571 C 45.087 256.515 44.1989 255.407 43.3758 254.251 C 45.4558 254.451 46.7558 254.831 52.8758 255.391 L 52.9158 255.391 Z M 17.3358 344.251 C 16.8958 345.451 13.6558 345.091 12.0358 343.931 C 10.7758 343.011 10.3558 347.191 19.2758 291.591 C 22.0448 292.146 24.8424 292.547 27.6558 292.791 C 21.7958 322.751 18.2958 341.591 17.3358 344.251 Z M 76.1958 341.251 C 76.1958 342.151 76.4558 342.451 75.5358 343.131 C 73.9558 344.271 70.6758 344.691 70.2158 343.471 C 69.2158 340.791 65.3158 319.791 59.9358 292.151 C 62.7213 291.7 65.479 291.093 68.1958 290.331 C 70.4758 304.591 76.0558 339.691 76.1958 341.151 L 76.1958 341.251 Z M 44.1958 282.811 C 32.7558 282.811 8.39584 282.391 2.63584 272.451 C 5.59584 260.831 21.8558 257.071 33.7758 255.851 C 34.7785 259.72 36.0072 263.526 37.4558 267.251 C 38.1621 268.996 39.4864 270.42 41.1758 271.251 C 42.5361 271.608 43.9583 271.66 45.3411 271.404 C 46.724 271.148 48.0333 270.591 49.1758 269.771 C 76.9958 266.891 66.4158 268.811 86.7758 268.111 C 79.3958 279.531 58.0158 282.731 44.2158 282.711 L 44.1958 282.811 Z M 62.4158 267.071 C 61.9158 267.071 48.8958 268.131 48.4158 268.411 C 47.4548 269.107 46.3581 269.593 45.1969 269.838 C 44.0357 270.082 42.836 270.08 41.6758 269.831 C 40.3758 269.153 39.3613 268.032 38.8158 266.671 C 37.5958 263.611 32.4758 249.611 35.3158 247.851 C 37.4558 248.131 43.8558 258.471 45.4158 259.211 C 45.5428 259.276 45.6833 259.31 45.8258 259.31 C 45.9684 259.31 46.1089 259.276 46.2358 259.211 C 49.8713 257.787 53.6171 256.664 57.4358 255.851 C 82.332 257.151 107.284 256.95 132.156 255.251 C 132.386 256.67 132.707 258.073 133.116 259.451 C 133.149 259.533 133.201 259.606 133.266 259.665 C 133.332 259.724 133.411 259.767 133.496 259.791 C 135.496 260.431 137.956 261.231 141.016 262.091 C 88.1358 268.631 76.8158 265.891 62.4358 266.971 L 62.4158 267.071 Z M 144.896 334.791 C 144.456 335.991 141.196 335.611 139.596 334.451 C 138.356 333.571 137.736 338.731 147.716 276.631 C 150.236 277.411 153.076 278.151 156.096 278.791 C 149.276 313.651 145.916 332.031 144.916 334.691 L 144.896 334.791 Z M 209.956 334.291 C 209.836 335.551 206.616 336.051 204.756 335.351 C 203.276 334.791 203.996 339.131 197.876 281.191 C 200.676 280.871 203.496 280.511 206.336 280.111 C 208.656 313.071 210.236 331.431 209.976 334.251 L 209.956 334.291 Z M 243.496 271.011 C 246.156 269.971 248.796 268.851 251.356 267.631 L 260.176 302.491 C 257.775 302.921 255.423 303.591 253.156 304.491 C 250.656 295.571 245.996 279.551 243.516 270.911 L 243.496 271.011 Z M 268.176 303.311 C 272.99 303.489 277.756 304.337 282.336 305.831 C 283.962 306.283 285.564 306.817 287.136 307.431 C 292.039 309.67 296.445 312.866 300.096 316.831 C 303.656 321.031 304.456 326.491 304.096 332.031 C 303.836 335.371 301.676 337.551 299.056 339.671 C 298.776 337.411 295.056 335.671 292.896 335.331 C 292.576 335.331 292.536 335.451 293.396 334.971 C 294.934 334.117 296.165 332.802 296.916 331.211 C 297.196 330.911 296.736 330.491 296.476 330.791 C 294.296 332.291 293.136 333.491 290.196 335.331 C 289.996 335.331 290.036 335.811 288.756 335.751 C 286.974 335.33 285.147 335.128 283.316 335.151 C 282.411 332.874 282.07 330.412 282.32 327.974 C 282.571 325.537 283.407 323.196 284.756 321.151 C 288.196 316.531 289.496 318.211 289.496 317.351 C 289.496 316.011 280.736 318.431 280.836 329.111 C 280.909 331.221 281.5 333.282 282.556 335.111 C 280.177 335.229 277.836 335.757 275.636 336.671 C 275.176 336.251 273.256 337.251 272.016 336.671 C 273.073 333.093 273.466 329.351 273.176 325.631 C 272.877 323.411 271.939 321.326 270.476 319.631 C 268.843 317.769 266.785 316.328 264.476 315.431 C 259.716 313.711 258.096 316.131 255.276 317.031 C 254.809 317.188 254.303 317.188 253.836 317.031 C 252.036 316.451 247.176 315.031 246.116 316.651 C 245.296 317.871 246.496 319.671 247.276 321.031 C 248.056 322.391 248.316 322.471 247.016 325.771 C 246.629 326.865 246.119 327.912 245.496 328.891 C 244.476 329.951 241.056 330.731 240.416 331.971 C 239.116 334.371 244.056 336.791 244.976 337.971 C 245.896 339.151 247.496 341.331 248.356 342.251 C 251.616 345.811 259.596 346.631 263.736 345.311 C 265.733 344.681 267.537 343.552 268.976 342.031 C 270.236 343.091 269.996 344.751 269.656 346.411 C 269.456 347.371 268.436 347.931 267.656 348.411 C 265.087 350.07 262.045 350.843 258.996 350.611 C 258.201 350.353 257.432 350.025 256.696 349.631 C 254.7 349.155 252.795 348.358 251.056 347.271 C 249.545 345.742 247.778 344.49 245.836 343.571 C 236.376 341.151 234.576 329.791 237.556 320.871 C 241.236 309.551 255.976 302.991 268.196 303.211 L 268.176 303.311 Z M 261.656 344.771 C 263.656 341.331 262.516 336.771 260.356 333.571 C 257.756 329.571 255.436 330.971 253.656 330.051 C 251.136 328.731 250.756 327.251 249.756 326.531 C 249.276 326.217 248.749 325.981 248.196 325.831 C 248.663 324.814 248.954 323.725 249.056 322.611 C 248.916 321.251 246.716 318.331 247.056 317.671 C 248.116 317.171 252.056 318.271 253.176 318.651 C 255.316 319.371 257.776 317.351 259.656 316.651 C 262.756 315.631 267.096 318.251 269.196 320.651 C 272.616 324.651 271.856 329.551 270.836 334.651 C 270.564 337.075 269.531 339.35 267.885 341.15 C 266.239 342.951 264.066 344.183 261.676 344.671 L 261.656 344.771 Z M 257.776 338.571 C 257.936 338.851 257.556 339.231 257.216 338.871 C 256.956 338.614 256.763 338.297 256.655 337.949 C 256.547 337.6 256.527 337.229 256.596 336.871 C 256.629 336.513 256.766 336.173 256.99 335.892 C 257.213 335.612 257.515 335.403 257.856 335.291 C 258.396 335.111 258.456 335.611 258.256 335.771 C 257.976 336.155 257.789 336.598 257.709 337.067 C 257.629 337.535 257.659 338.016 257.796 338.471 L 257.776 338.571 Z M 316.616 349.571 C 316.616 350.691 316.856 352.451 316.116 353.171 C 315.736 353.551 310.496 352.731 305.136 353.511 C 303.136 353.811 300.996 354.271 298.936 354.551 C 287.396 356.191 290.936 354.851 273.716 360.051 C 270.956 360.871 268.136 361.411 265.356 362.151 C 259.956 363.611 257.616 365.391 253.716 366.351 C 247.496 367.911 246.416 364.511 243.316 360.751 C 238.956 355.431 237.696 349.071 234.036 343.891 C 226.836 333.711 224.956 335.231 221.256 332.071 C 220.528 331.471 219.929 330.729 219.496 329.891 C 219.432 329.785 219.399 329.664 219.399 329.541 C 219.399 329.418 219.432 329.297 219.496 329.191 C 220.471 327.985 221.616 326.927 222.896 326.051 C 224.517 324.975 226.222 324.031 227.996 323.231 C 230.756 321.731 234.456 319.431 236.856 318.391 C 232.316 327.991 233.936 342.391 245.256 345.111 C 245.978 345.357 246.654 345.722 247.256 346.191 C 248.659 347.485 250.202 348.619 251.856 349.571 C 253.216 350.171 254.756 350.491 256.116 350.991 C 257.224 351.647 258.471 352.034 259.756 352.12 C 261.042 352.207 262.329 351.992 263.516 351.491 C 265.715 350.828 267.756 349.726 269.516 348.251 C 269.884 347.867 270.14 347.39 270.256 346.871 C 270.616 344.871 270.776 343.011 269.256 341.771 C 270.328 340.455 271.143 338.949 271.656 337.331 C 272.352 337.587 273.104 337.656 273.836 337.531 C 270.836 339.991 271.716 342.111 275.576 343.091 C 279.296 344.012 283.154 344.236 286.956 343.751 C 290.716 343.411 295.776 343.631 298.816 341.311 C 301.856 338.991 304.936 336.291 305.316 332.151 C 305.696 328.011 305.096 327.051 305.696 328.351 C 306.876 330.871 307.796 333.531 309.156 335.911 C 311.476 339.911 315.796 342.231 316.416 346.951 C 316.552 347.785 316.632 348.626 316.656 349.471 L 316.616 349.571 Z M 351.116 339.911 C 351.116 339.911 351.116 339.791 351.116 339.911 C 351.516 340.651 321.956 343.071 314.916 340.911 C 314.616 340.551 314.316 340.191 313.976 339.831 C 311.976 333.171 309.356 315.091 308.556 308.991 C 323.965 309.048 339.362 308.133 354.656 306.251 C 354.436 311.931 352.236 336.791 351.136 339.811 L 351.116 339.911 Z M 357.116 297.431 C 357.906 299.923 357.906 302.599 357.116 305.091 C 356.276 306.411 309.796 308.111 306.256 307.211 C 305.284 304.887 304.919 302.354 305.196 299.851 C 305.196 299.851 306.116 299.431 307.076 299.211 C 317.056 296.891 356.156 295.771 357.216 297.331 L 357.116 297.431 Z M 328.396 295.711 C 323.016 295.931 311.296 296.551 306.236 297.851 C 305.336 298.091 304.076 298.451 303.836 299.271 C 303.236 301.171 303.936 306.891 305.276 308.331 C 305.696 308.811 306.896 308.851 307.776 308.911 C 308.516 316.331 310.236 330.071 311.776 337.391 C 308.476 333.511 307.776 329.151 305.036 324.851 C 304.535 321.552 303.153 318.45 301.036 315.871 C 297.236 311.711 292.638 308.357 287.516 306.011 C 285.996 305.391 284.416 304.911 282.576 304.351 C 275.799 302.001 268.566 301.268 261.456 302.211 C 260.956 300.211 254.456 276.591 251.876 267.311 C 264.736 260.951 272.536 249.451 277.356 235.931 C 278.546 238.997 280.012 241.949 281.736 244.751 C 283.936 248.351 303.596 268.551 311.316 271.991 C 314.626 273.359 318.199 273.974 321.776 273.791 C 323.008 273.755 324.236 273.648 325.456 273.471 C 325.896 275.351 327.016 280.671 328.496 295.611 L 328.396 295.711 Z M 376.176 243.891 C 367.776 256.011 360.316 258.471 347.936 264.611 C 341.479 267.711 334.724 270.15 327.776 271.891 C 329.676 267.231 335.056 261.411 338.456 257.891 C 346.84 249.387 355.709 241.374 365.016 233.891 C 365.079 233.843 365.122 233.772 365.133 233.693 C 365.144 233.615 365.124 233.534 365.076 233.471 C 365.028 233.407 364.957 233.365 364.878 233.354 C 364.8 233.343 364.72 233.363 364.656 233.411 C 345.436 246.451 330.656 263.411 327.156 269.931 C 327.202 267.484 327.062 265.037 326.736 262.611 C 327.524 258.952 328.795 255.414 330.516 252.091 C 332.524 248.606 334.847 245.312 337.456 242.251 C 344.436 232.591 358.436 219.231 369.836 223.051 C 379.136 226.071 381.776 235.851 376.276 243.791 L 376.176 243.891 Z" stroke-linecap="round" /></g><g transform="matrix(1 0 0 1 -101.98 54.78)"  ><path style="stroke: none; stroke-width: 1; stroke-dasharray: none; stroke-linecap: butt; stroke-dashoffset: 0; stroke-linejoin: miter; stroke-miterlimit: 4; fill: rgb(78,102,206); fill-rule: nonzero; opacity: 1;"  transform=" translate(-88.52, -239.28)" d="M 87.8359 241.151 C 87.9958 241.149 88.1525 241.107 88.292 241.029 C 88.4315 240.951 88.5493 240.839 88.6347 240.704 C 88.7201 240.569 88.7704 240.415 88.7811 240.255 C 88.7918 240.096 88.7626 239.936 88.6959 239.791 C 88.3159 238.951 88.1159 238.151 87.5759 237.171 C 87.4536 236.954 87.2517 236.793 87.0128 236.722 C 86.774 236.651 86.5169 236.676 86.2959 236.791 C 86.1866 236.85 86.0899 236.929 86.0115 237.026 C 85.9331 237.122 85.8745 237.233 85.8392 237.352 C 85.8039 237.471 85.7925 237.595 85.8056 237.719 C 85.8188 237.842 85.8563 237.962 85.916 238.071 C 86.796 239.691 86.7759 241.151 87.8359 241.151 Z M 70.0359 243.291 C 70.0514 243.538 70.162 243.77 70.3447 243.938 C 70.5274 244.106 70.768 244.196 71.0159 244.191 C 71.1394 244.186 71.2607 244.156 71.3728 244.104 C 71.4849 244.052 71.5856 243.978 71.6692 243.887 C 71.7528 243.796 71.8176 243.69 71.8599 243.574 C 71.9023 243.458 71.9213 243.334 71.916 243.211 C 71.916 241.211 72.3559 239.611 70.8559 239.511 C 70.6046 239.536 70.3734 239.66 70.2124 239.854 C 70.0514 240.049 69.9736 240.299 69.9959 240.551 C 70.0959 241.511 69.9959 242.251 70.0359 243.291 L 70.0359 243.291 Z M 105.156 238.071 C 105.166 238.194 105.201 238.314 105.258 238.424 C 105.315 238.534 105.393 238.632 105.488 238.712 C 105.583 238.792 105.692 238.852 105.81 238.89 C 105.928 238.927 106.053 238.941 106.176 238.931 C 106.299 238.92 106.42 238.886 106.53 238.829 C 106.64 238.772 106.737 238.694 106.817 238.599 C 106.897 238.504 106.957 238.395 106.995 238.277 C 107.033 238.159 107.046 238.034 107.036 237.911 C 107.036 236.971 107.036 236.131 106.876 235.051 C 106.81 234.827 106.664 234.636 106.467 234.512 C 106.27 234.387 106.034 234.339 105.804 234.376 C 105.574 234.413 105.365 234.532 105.217 234.711 C 105.068 234.891 104.989 235.118 104.996 235.351 C 105.136 236.251 105.076 237.091 105.156 238.071 Z" stroke-linecap="round" /></g></g></g></svg>