<svg viewBox = "0 0 381 349" width="381" height="349" xmlns="http://www.w3.org/2000/svg"><g transform="matrix(1 0 0 1 190.5 174.5)"  ><g style=""   ><g transform="matrix(1 0 0 1 -2.25 -63.72)"  ><path style="stroke: none; stroke-width: 1; stroke-dasharray: none; stroke-linecap: butt; stroke-dashoffset: 0; stroke-linejoin: miter; stroke-miterlimit: 4; fill: rgb(78,102,206); fill-rule: nonzero; opacity: 1;"  transform=" translate(-188.25, -110.78)" d="M 250.411 51.2976 C 253.751 53.1176 257.411 50.2976 255.591 50.6576 C 254.096 50.8652 252.572 50.6287 251.211 49.9776 C 251.869 47.4606 252.245 44.878 252.331 42.2776 C 251.691 35.9776 249.231 50.5376 250.411 51.2976 L 250.411 51.2976 Z M 260.011 54.1376 C 258.011 56.1376 255.531 57.5976 257.591 57.3776 C 260.351 57.0976 262.211 54.3576 261.211 52.9176 C 260.411 53.4376 260.931 53.1976 260.011 54.1376 Z M 257.691 40.4176 C 257.091 41.1376 257.691 42.7576 257.831 43.4776 C 257.874 43.6745 257.99 43.8478 258.155 43.963 C 258.32 44.0782 258.523 44.1267 258.722 44.0989 C 258.922 44.0711 259.104 43.9691 259.231 43.8131 C 259.359 43.6571 259.423 43.4588 259.411 43.2576 C 259.191 41.4576 258.751 39.1776 257.691 40.4176 L 257.691 40.4176 Z M 246.531 44.0976 C 245.871 39.4976 244.531 41.4776 244.651 42.2376 C 244.811 45.3176 246.751 45.6576 246.531 44.0976 Z M 256.491 37.2376 C 267.451 38.2976 256.131 33.5776 255.531 37.0776 L 256.491 37.2376 Z M 187.371 119.518 C 185.091 120.318 185.551 122.738 188.371 121.678 C 194.137 119.362 200.193 117.848 206.371 117.178 C 206.371 133.418 205.551 139.718 206.491 140.158 C 207.511 139.758 208.351 117.978 208.291 116.158 C 208.111 112.798 190.951 118.238 187.371 119.518 Z M 168.011 141.998 C 165.071 148.298 159.871 156.898 166.251 159.078 C 169.831 160.278 184.991 159.078 182.091 150.938 C 179.531 143.658 171.411 134.898 168.011 141.998 L 168.011 141.998 Z M 268.651 184.218 C 265.951 183.438 242.271 178.978 241.111 180.118 C 238.591 182.658 252.571 181.218 268.211 185.758 C 268.415 185.816 268.634 185.791 268.82 185.688 C 269.005 185.585 269.142 185.412 269.201 185.208 C 269.259 185.003 269.234 184.784 269.131 184.599 C 269.028 184.413 268.855 184.276 268.651 184.218 Z M 270.871 172.678 C 264.016 171.039 257.04 169.956 250.011 169.438 C 249.798 169.464 249.606 169.574 249.474 169.743 C 249.343 169.911 249.284 170.125 249.311 170.338 C 249.337 170.55 249.447 170.743 249.616 170.874 C 249.784 171.005 249.998 171.064 250.211 171.038 C 257.022 171.581 263.782 172.644 270.431 174.218 C 270.635 174.276 270.854 174.251 271.04 174.148 C 271.225 174.045 271.362 173.872 271.421 173.668 C 271.479 173.463 271.454 173.244 271.351 173.059 C 271.248 172.873 271.075 172.736 270.871 172.678 L 270.871 172.678 Z M 115.051 58.0776 C 112.511 58.3576 111.731 57.6376 111.511 58.1976 C 110.971 61.8976 120.651 57.9176 115.051 58.0776 Z M 106.651 43.0176 C 106.651 38.0376 105.051 39.5176 105.051 43.0176 C 105.051 43.2298 105.135 43.4333 105.285 43.5833 C 105.435 43.7333 105.638 43.8176 105.851 43.8176 C 106.063 43.8176 106.266 43.7333 106.416 43.5833 C 106.566 43.4333 106.651 43.2298 106.651 43.0176 L 106.651 43.0176 Z M 120.831 41.1376 C 120.848 41.2414 120.885 41.3407 120.941 41.4301 C 120.996 41.5194 121.069 41.5969 121.154 41.6582 C 121.239 41.7195 121.336 41.7633 121.438 41.7872 C 121.541 41.8112 121.647 41.8147 121.751 41.7976 C 121.854 41.7806 121.954 41.7432 122.043 41.6877 C 122.132 41.6323 122.21 41.5598 122.271 41.4743 C 122.332 41.3889 122.376 41.2922 122.4 41.1898 C 122.424 41.0875 122.428 40.9814 122.411 40.8776 C 121.671 36.0576 120.251 37.4976 120.831 41.1376 Z" stroke-linecap="round" /></g><g transform="matrix(1 0 0 1 -0.46 0.02)"  ><path style="stroke: none; stroke-width: 1; stroke-dasharray: none; stroke-linecap: butt; stroke-dashoffset: 0; stroke-linejoin: miter; stroke-miterlimit: 4; fill: rgb(78,102,206); fill-rule: nonzero; opacity: 1;"  transform=" translate(-190.04, -174.52)" d="M 344.011 231.538 C 358.951 220.098 358.451 199.058 358.011 198.378 C 363.751 192.378 363.911 174.978 362.251 171.398 C 360.011 166.538 370.011 123.698 353.691 111.758 C 355.131 111.118 357.871 109.478 358.071 107.338 C 358.431 103.118 354.451 102.438 351.411 100.638 C 338.711 93.1776 337.911 76.6376 313.031 70.5176 C 312.111 68.8176 311.911 68.5176 311.171 67.2776 C 329.171 68.5176 326.851 58.6576 323.751 56.2176 C 321.799 55.0892 319.708 54.2218 317.531 53.6376 C 325.111 50.4576 324.891 40.9176 315.131 41.7976 C 313.971 41.8976 317.731 38.8176 314.671 34.8776 C 313.982 33.8149 313.011 32.9654 311.866 32.4248 C 310.722 31.8841 309.449 31.6739 308.191 31.8176 C 308.191 25.1176 304.971 22.3976 301.151 22.3976 C 306.771 14.1576 299.271 4.97763 288.751 10.0776 C 291.251 4.27763 284.591 -6.16237 269.331 5.93763 C 268.371 1.73763 255.091 -2.64237 253.651 3.49763 C 252.911 6.63763 247.651 -2.14237 238.051 5.05763 C 235.431 7.05763 234.051 10.3576 237.131 11.3976 C 227.591 12.0976 223.931 20.9776 231.331 22.8976 C 232.931 23.3176 228.291 24.3976 229.031 30.3576 C 229.591 34.9176 233.631 37.5376 236.931 35.0376 C 238.031 34.2176 237.711 34.0376 237.611 34.8976 C 237.583 35.2351 237.625 35.5746 237.731 35.8959 C 237.838 36.2171 238.009 36.5135 238.233 36.7674 C 238.457 37.0213 238.73 37.2274 239.035 37.3735 C 239.341 37.5196 239.672 37.6026 240.011 37.6176 C 240.313 39.3695 240.775 41.09 241.391 42.7576 C 234.151 42.7576 229.851 48.9976 231.771 52.0376 C 233.991 55.5176 237.891 53.1976 233.011 55.7176 C 223.551 60.6176 225.931 68.7376 231.731 68.6776 C 237.531 68.6176 233.731 66.4776 234.631 72.2776 C 235.191 76.0976 241.391 79.8376 246.631 75.0376 C 248.111 76.8176 248.411 77.9576 250.211 78.8776 C 235.191 88.8776 240.431 93.7376 220.951 113.378 C 218.691 115.678 218.031 114.818 216.951 115.878 C 215.871 116.938 217.351 123.298 222.951 122.838 C 216.811 140.838 222.951 135.298 214.071 136.238 C 213.871 136.238 216.411 109.978 216.071 106.358 C 215.871 104.578 215.511 104.618 195.431 109.198 C 196.091 95.7976 195.951 68.0976 194.791 67.8176 C 194.591 67.8176 180.131 67.8176 180.131 67.4376 C 179.811 66.1576 180.751 60.6576 180.491 59.6176 C 180.251 58.9376 179.451 58.9576 178.811 58.5376 C 171.051 53.3776 180.811 56.1976 181.551 55.4376 C 182.631 54.2376 181.551 42.1376 183.551 42.1376 C 185.551 43.1976 183.951 53.3176 184.711 54.2776 C 187.171 56.4376 185.491 45.0176 188.151 45.3376 C 189.611 45.6176 187.951 53.8576 188.511 55.2176 C 190.331 57.8176 189.691 51.2176 191.851 49.0776 C 194.371 47.8576 191.731 67.0776 191.451 67.4776 C 192.471 68.2776 196.951 44.1576 191.071 47.9576 C 189.351 49.0776 191.071 47.4776 189.811 44.8176 C 189.111 43.4376 187.111 43.2176 185.991 45.1776 C 184.931 38.1776 181.431 39.8776 180.891 44.7976 C 180.371 54.0776 180.591 52.6776 180.431 54.3376 C 175.131 52.3376 171.171 57.0376 178.951 59.7376 C 180.171 60.1576 178.951 64.5976 179.331 67.1376 C 179.331 67.5576 179.551 67.4176 178.511 67.3176 C 174.231 66.8776 161.431 103.498 157.491 108.758 C 162.951 116.758 161.131 117.938 160.631 116.618 C 155.211 105.418 132.631 81.9576 107.531 73.4776 C 105.531 72.8376 106.011 73.4776 105.531 70.8776 C 104.071 68.7376 125.411 79.7176 123.531 47.5176 C 132.551 47.8176 131.231 33.6976 123.691 33.2976 C 128.671 27.1976 127.111 22.1776 122.091 16.8376 C 119.871 0.837627 102.671 0.47763 87.3706 6.31763 C 83.7506 7.69763 83.1106 9.85763 81.2506 13.0576 C 79.4506 13.3376 78.6306 12.0376 75.1506 14.0376 C 64.5706 20.1376 67.1506 37.3776 75.9106 44.3376 C 74.3306 48.9176 75.7106 53.9976 81.6706 53.5776 C 81.6706 72.7376 83.4106 68.2976 74.2906 69.8776 C 9.29064 81.1376 -8.86936 159.938 19.3106 186.098 C 20.8706 187.558 14.0306 197.338 26.2306 204.278 C 26.6215 213.162 28.7411 221.885 32.4706 229.958 C 35.2506 235.958 35.3506 234.658 35.0706 235.538 C 23.1906 273.338 0.550642 340.818 0.190642 342.418 C -1.10936 348.198 4.57064 349.878 7.19064 345.438 C 8.35064 343.438 40.3706 256.838 44.4906 245.558 C 46.3554 247.04 48.2982 248.422 50.3106 249.698 C 49.4506 265.078 44.5306 331.698 45.4106 335.538 C 45.575 336.472 46.0466 337.325 46.7505 337.961 C 47.4545 338.597 48.3506 338.979 49.2969 339.048 C 50.2431 339.117 51.1852 338.868 51.9739 338.341 C 52.7626 337.814 53.3527 337.038 53.6506 336.138 C 53.9506 335.138 60.3506 291.118 64.2306 256.678 C 87.2306 266.058 113.291 267.198 117.991 267.258 C 121.991 347.078 121.391 342.278 129.831 339.838 C 131.311 339.398 131.351 339.838 131.591 330.378 C 135.591 333.818 153.191 347.638 158.531 348.678 C 160.131 348.978 161.611 345.778 159.511 342.078 C 147.311 320.618 145.971 330.518 157.191 316.338 C 158.451 319.398 163.331 331.838 165.191 332.138 C 169.891 332.658 168.091 342.878 170.971 342.978 C 176.091 343.178 202.631 341.338 204.711 338.398 C 205.591 337.178 203.691 334.558 201.251 333.458 C 174.771 323.798 185.551 341.798 183.531 285.098 C 183.531 283.658 194.951 270.438 200.391 253.638 C 203.411 244.298 200.391 240.258 201.891 235.638 C 205.191 224.738 199.351 227.018 211.371 226.398 C 213.931 231.358 215.831 228.398 217.231 234.398 C 218.649 240.821 221.615 246.801 225.871 251.818 C 226.65 242.661 228.669 233.652 231.871 225.038 C 233.871 224.858 231.611 222.918 227.051 253.038 C 227.231 253.238 226.471 307.918 228.851 309.038 C 230.722 309.637 232.667 309.974 234.631 310.038 C 234.151 310.418 234.471 323.598 234.251 323.598 C 234.251 324.098 218.051 329.358 216.251 337.498 C 216.011 339.278 215.971 340.018 217.831 340.018 C 224.011 339.678 244.791 334.498 246.151 334.498 C 246.151 336.718 245.811 336.898 247.911 336.878 C 249.691 336.878 251.911 336.878 252.491 336.058 C 253.031 334.718 251.791 313.258 252.111 310.758 C 252.111 310.558 251.771 310.758 256.651 310.758 C 256.851 339.298 257.071 336.598 259.071 337.178 C 267.611 338.638 266.051 340.518 269.071 290.478 C 276.791 297.478 273.351 297.558 283.071 291.318 C 284.391 292.978 291.071 300.878 291.071 300.938 C 287.871 307.178 282.311 319.178 287.191 324.398 C 288.571 325.578 290.191 323.418 303.931 305.278 C 309.331 298.118 306.511 304.918 309.731 302.158 C 315.551 297.178 313.731 300.158 297.731 281.558 C 307.111 274.778 306.091 276.698 298.671 269.698 C 258.231 231.438 272.831 257.918 324.051 240.978 C 325.291 253.858 334.691 333.718 336.591 335.098 C 337.891 336.038 342.191 335.498 343.531 334.898 C 345.831 333.858 342.971 305.218 338.771 253.338 C 355.671 299.498 372.551 343.658 372.551 343.858 C 374.791 348.598 380.371 347.658 380.071 342.958 C 380.011 343.038 349.751 250.058 344.011 231.538 L 344.011 231.538 Z M 308.611 301.098 C 307.671 300.118 307.451 299.378 306.611 299.658 C 305.031 300.458 290.051 321.658 287.891 323.018 C 283.451 316.458 292.631 301.578 292.171 300.658 C 291.891 300.278 297.811 298.658 304.491 290.998 C 312.131 299.838 312.011 298.298 308.591 301.098 L 308.611 301.098 Z M 303.671 289.938 C 300.377 294.085 296.3 297.544 291.671 300.118 C 285.671 293.478 284.851 292.498 283.671 291.058 C 300.131 280.638 294.971 279.738 303.651 289.938 L 303.671 289.938 Z M 357.431 199.598 C 357.091 214.978 351.311 224.798 343.671 230.458 C 336.491 207.318 338.411 214.338 339.431 206.758 C 359.431 201.378 357.451 197.378 357.411 199.598 L 357.431 199.598 Z M 360.491 168.718 C 356.311 164.058 349.871 162.718 343.891 161.338 C 348.871 158.798 354.731 155.638 356.211 151.678 C 358.211 145.118 355.151 129.338 353.911 125.498 C 348.771 109.398 345.411 114.518 351.911 112.458 C 365.071 121.338 361.851 148.598 360.471 168.718 L 360.491 168.718 Z M 282.271 169.038 C 270.631 170.378 276.931 173.158 274.271 174.718 C 272.391 175.798 271.751 178.058 274.791 178.718 C 277.031 179.218 276.791 178.718 275.751 179.378 C 273.511 180.718 272.931 183.958 281.311 183.118 C 280.351 184.958 275.531 194.218 274.211 195.858 C 273.731 196.458 240.951 194.418 219.311 191.858 C 219.491 191.658 240.531 165.158 245.631 160.618 C 246.111 160.398 281.631 164.618 281.831 164.618 C 281.435 166.094 281.584 167.663 282.251 169.038 L 282.271 169.038 Z M 276.131 181.618 C 274.631 179.618 284.711 180.078 282.431 177.898 C 282.231 177.778 262.991 176.838 283.231 174.598 C 283.415 174.556 283.578 174.448 283.689 174.296 C 283.8 174.143 283.852 173.955 283.835 173.766 C 283.818 173.578 283.733 173.402 283.596 173.272 C 283.459 173.142 283.28 173.066 283.091 173.058 C 279.491 173.158 277.251 173.818 276.531 173.058 C 275.351 170.758 282.131 170.778 283.271 170.358 C 285.271 169.818 281.651 166.358 283.571 164.358 C 284.571 163.458 287.471 169.198 287.891 169.578 C 293.711 173.438 316.731 137.998 330.791 136.678 C 334.271 136.338 324.791 135.918 320.911 139.658 C 312.911 117.018 313.111 117.818 313.171 116.938 C 313.431 113.458 317.351 111.978 320.731 112.538 C 324.111 113.098 324.831 115.298 328.471 115.318 C 330.333 115.327 332.178 114.962 333.896 114.244 C 335.613 113.526 337.169 112.47 338.471 111.138 C 341.044 112.21 343.785 112.826 346.571 112.958 C 351.091 122.638 352.671 123.578 354.391 134.598 C 355.291 140.338 357.131 150.058 353.091 153.798 C 344.591 161.678 287.631 185.558 276.111 181.618 L 276.131 181.618 Z M 286.791 165.158 C 290.791 165.678 290.191 165.158 289.411 166.898 C 288.351 169.118 289.091 168.418 286.771 165.158 L 286.791 165.158 Z M 244.011 60.0576 C 233.551 56.8176 244.491 44.5376 244.011 48.4376 C 244.011 48.6376 243.431 48.8176 243.271 48.9176 C 241.271 50.0576 238.751 58.9176 247.631 59.2776 C 252.431 59.4976 247.111 61.0376 244.011 60.0576 Z M 244.491 48.0576 C 241.491 40.0576 241.371 41.3176 240.711 37.6576 C 244.711 37.1976 249.031 37.5176 246.431 36.0176 C 245.011 35.1976 243.611 36.1576 244.251 35.6176 C 250.251 29.9176 248.111 24.1976 249.311 27.2976 C 249.888 28.6683 250.802 29.8708 251.969 30.7933 C 253.136 31.7157 254.517 32.3282 255.984 32.5736 C 257.45 32.8191 258.956 32.6897 260.359 32.1973 C 261.762 31.705 263.019 30.8657 264.011 29.7576 C 265.691 34.2176 267.571 36.5376 272.871 37.0576 C 276.411 37.3976 275.851 36.9576 277.191 35.6176 C 282.331 30.4776 287.191 40.6176 280.951 43.6176 C 278.671 44.4176 281.931 54.6976 288.031 52.0776 C 292.591 50.0776 291.351 40.6176 286.271 40.2376 C 284.391 40.0976 285.351 39.6176 285.651 39.5776 C 292.251 38.6376 295.051 50.0376 289.211 53.2776 C 283.851 56.2576 277.431 50.0376 279.831 43.8176 C 275.531 44.3976 275.551 50.0176 277.831 53.7176 C 278.111 54.1576 268.851 54.5176 269.711 61.2776 C 270.291 64.1976 273.711 64.8576 276.651 64.7976 C 270.391 79.3976 278.371 81.4376 285.291 74.4976 C 285.861 76.341 286.682 78.0974 287.731 79.7176 C 290.991 83.8576 255.991 94.1976 257.011 78.0776 C 258.983 76.9671 260.857 75.6891 262.611 74.2576 C 262.872 72.2623 262.825 70.2386 262.471 68.2576 C 261.571 63.0376 252.871 70.4176 244.411 48.0176 L 244.491 48.0576 Z M 269.271 116.798 C 265.271 113.718 259.271 90.6376 258.111 85.0976 C 273.371 94.0976 287.131 82.2776 286.351 83.9776 C 284.011 88.8976 271.631 113.298 269.191 116.758 L 269.271 116.798 Z M 270.811 130.418 C 263.511 131.238 261.631 121.418 267.231 119.018 C 278.151 114.978 281.351 129.198 270.811 130.418 Z M 253.291 79.8776 C 253.291 79.8776 255.091 78.9576 256.311 78.2776 C 256.111 82.8176 258.251 83.6376 253.291 79.8376 L 253.291 79.8776 Z M 218.411 119.638 C 215.691 115.518 219.251 117.978 228.151 107.998 C 235.091 100.238 242.351 83.5776 251.171 79.9976 C 251.671 80.4376 254.351 82.5376 256.911 84.3176 C 258.411 94.0176 263.511 112.318 267.271 117.038 C 267.451 117.258 258.371 120.178 264.571 129.678 C 275.451 138.398 284.371 119.678 272.171 117.178 C 269.311 116.618 270.891 120.498 284.611 89.9376 C 288.611 80.9376 286.511 83.9376 289.871 81.4176 C 292.771 82.9976 300.831 83.5376 300.831 74.8976 C 307.631 80.5176 316.171 78.3776 313.931 72.3776 C 334.331 77.9176 336.791 90.0576 346.131 98.6176 C 352.131 104.178 356.971 103.578 356.491 107.138 C 356.491 108.878 350.691 113.358 341.691 110.838 C 338.611 109.978 338.271 109.338 337.691 110.058 C 336.352 111.507 334.686 112.616 332.831 113.29 C 330.977 113.965 328.988 114.187 327.031 113.938 C 325.331 113.498 324.371 112.478 321.971 111.618 C 318.711 110.678 313.971 111.618 312.511 115.018 C 307.791 96.0176 309.091 93.4976 308.011 92.4176 C 303.811 96.6976 317.791 134.858 319.691 140.658 C 316.291 142.658 307.491 151.398 304.711 154.178 C 304.011 154.878 289.471 151.558 241.171 151.318 C 245.331 143.018 252.271 137.738 252.631 136.738 C 252.751 136.078 244.491 127.778 246.011 118.618 C 248.311 104.618 254.311 96.8976 251.771 99.1976 C 246.971 106.678 243.231 115.058 245.091 123.898 C 244.234 124.514 243.243 124.916 242.199 125.073 C 241.156 125.229 240.09 125.135 239.091 124.798 C 235.091 123.298 234.131 117.218 223.491 121.598 C 222.546 121.857 221.542 121.807 220.628 121.455 C 219.713 121.102 218.936 120.465 218.411 119.638 L 218.411 119.638 Z M 224.191 122.718 C 227.831 122.098 230.631 120.718 233.051 122.218 C 235.051 123.458 238.851 129.178 245.251 125.578 C 247.011 128.158 246.391 132.058 250.831 136.538 C 232.131 155.018 243.491 160.298 211.751 159.838 C 212.231 154.938 213.331 143.218 213.871 136.918 C 223.671 135.758 217.331 142.298 224.191 122.718 L 224.191 122.718 Z M 214.391 106.898 C 214.391 116.058 210.211 160.558 209.191 169.658 C 199.731 172.818 137.611 190.278 116.071 193.658 C 116.511 180.718 120.311 142.558 123.791 130.078 C 134.511 124.798 204.011 108.418 214.391 106.898 L 214.391 106.898 Z M 72.3906 173.518 C 78.3906 169.518 108.511 162.938 117.731 160.818 C 117.731 161.298 117.391 163.738 117.331 164.218 C 69.0706 174.078 78.7306 176.258 72.4506 173.518 L 72.3906 173.518 Z M 126.391 83.6976 C 114.991 110.198 114.391 102.378 124.611 105.558 C 125.671 105.898 109.931 139.158 109.871 140.258 C 107.451 188.058 108.391 130.018 113.111 82.2576 C 113.771 75.6776 111.131 74.4176 126.411 83.6976 L 126.391 83.6976 Z M 113.431 152.938 C 113.431 153.15 113.346 153.353 113.196 153.503 C 113.046 153.653 112.843 153.738 112.631 153.738 C 112.418 153.738 112.215 153.653 112.065 153.503 C 111.915 153.353 111.831 153.15 111.831 152.938 C 111.811 148.418 113.431 146.058 113.431 152.938 Z M 106.011 73.6976 C 115.151 76.8376 112.991 74.1176 111.571 88.7576 C 111.571 88.3376 109.711 87.2376 105.431 82.8776 C 107.351 81.1376 106.511 76.2376 106.011 73.6976 Z M 106.251 94.0176 C 107.611 93.6776 107.811 90.0176 107.931 87.4976 C 112.451 91.6976 111.491 88.5776 110.491 100.358 C 107.811 93.3376 107.831 93.7576 107.471 93.5976 C 106.971 94.5976 104.311 95.8376 102.931 94.7376 C 102.791 96.1576 103.551 112.538 103.671 117.158 C 70.9706 59.7776 92.4506 102.658 98.7506 91.0576 C 104.571 94.6976 102.511 94.9576 106.291 94.0176 L 106.251 94.0176 Z M 123.751 34.4176 C 129.751 34.2976 130.671 45.6976 124.011 45.9576 C 117.351 46.2176 117.191 34.5376 123.751 34.4176 L 123.751 34.4176 Z M 118.011 26.6376 C 118.491 28.2176 119.371 31.4376 120.011 34.3776 C 116.831 37.0376 118.811 39.1776 116.451 39.5376 C 116.011 38.4176 116.011 37.7776 115.411 38.4176 C 115.411 40.0776 115.951 39.6176 113.711 40.0376 C 109.931 40.7176 112.751 40.3176 110.451 37.6776 C 109.636 36.654 108.556 35.8737 107.329 35.422 C 106.101 34.9704 104.773 34.8647 103.489 35.1164 C 102.205 35.3682 101.015 35.9678 100.049 36.8498 C 99.0833 37.7317 98.378 38.8621 98.0106 40.1176 C 96.2706 40.1176 90.8906 39.9176 90.0106 39.7776 C 88.8106 36.2376 86.6506 23.6176 86.6306 23.4576 C 101.611 32.7376 114.191 29.8776 118.011 26.6376 Z M 110.811 44.6376 C 109.571 48.3576 101.631 49.6976 99.6306 43.7376 C 96.4506 34.4176 114.631 32.9976 110.771 44.6376 L 110.811 44.6376 Z M 78.3906 52.0576 C 75.7906 50.7176 75.1306 42.6576 79.6906 42.0576 C 82.6506 41.6976 84.2306 44.9776 85.4106 45.5176 C 88.4506 46.8776 90.3306 44.9776 90.3306 41.6176 L 97.7706 41.6176 C 97.3506 52.0176 113.771 51.6176 112.031 41.7976 C 117.031 41.5776 114.771 38.3776 117.211 49.1976 C 115.611 49.9776 112.891 50.3376 112.771 50.7776 C 113.331 51.6576 118.771 51.1576 118.771 49.0376 C 118.151 45.4176 117.691 43.2376 117.371 42.0376 C 117.73 43.1567 118.317 44.1892 119.095 45.0704 C 119.873 45.9515 120.825 46.6621 121.891 47.1576 C 122.011 48.6976 122.031 49.8576 122.071 51.8976 C 122.691 76.3376 104.071 67.0576 103.831 69.8976 C 103.831 70.8976 106.211 79.8976 104.531 81.4776 C 99.5706 80.2776 83.5706 70.0976 83.0706 68.7776 C 83.0506 45.7976 83.0106 54.4176 78.3906 52.0576 Z M 101.231 82.0576 C 99.7627 85.68 98.0175 89.1837 96.0106 92.5376 C 82.7106 83.6376 81.1906 78.4176 76.6306 70.4176 C 87.3706 68.5776 76.6106 70.5976 101.231 82.0776 L 101.231 82.0576 Z M 75.2306 71.0176 C 112.591 135.018 108.771 123.838 108.051 134.218 C 103.131 131.178 76.6306 114.498 73.3706 111.858 C 74.1506 109.538 81.9906 102.378 82.4306 101.058 C 82.8706 99.7376 58.6506 75.6576 58.7306 75.6376 C 64.0662 73.6703 69.5503 72.1321 75.1306 71.0376 L 75.2306 71.0176 Z M 46.3706 161.018 C 49.6306 161.798 48.8706 162.338 49.5706 161.198 C 58.2306 147.198 62.1706 120.958 62.5506 120.638 C 63.7106 122.058 60.7506 145.758 50.8306 160.638 C 48.9506 163.458 48.9306 160.638 54.3906 167.058 C 70.0106 163.238 97.0306 160.418 118.131 158.198 C 118.131 158.718 117.971 159.558 117.911 160.198 C 104.211 162.938 61.7306 169.798 70.5306 178.358 C 73.2906 180.698 113.931 196.358 115.911 194.358 C 136.531 191.718 205.111 173.138 210.151 171.038 C 210.691 170.678 210.631 171.518 211.631 161.258 C 223.471 161.658 227.631 163.258 235.051 157.838 C 237.204 156.281 239.141 154.445 240.811 152.378 C 260.511 152.618 283.871 153.398 303.511 155.618 C 283.791 175.798 295.111 164.938 289.911 164.238 C 281.171 163.038 245.291 159.738 245.511 160.078 C 244.951 159.298 219.031 189.138 217.511 191.898 C 215.991 194.658 273.871 198.498 275.111 197.198 C 276.351 195.898 282.051 184.958 283.111 183.018 C 293.271 181.698 307.111 179.778 342.011 162.398 C 372.211 169.958 362.671 184.018 348.011 189.518 C 342.891 191.518 293.751 205.718 227.531 210.658 C 106.451 219.678 33.7506 194.658 37.6706 194.658 C 38.6506 194.658 39.0906 193.378 40.7906 190.218 C 49.3506 197.758 71.0706 204.398 65.6906 197.438 C 66.8046 197.602 67.9367 197.602 69.0506 197.438 C 71.1706 196.958 71.3106 194.938 69.6106 193.438 C 68.7506 192.698 68.6306 192.938 69.3906 192.878 C 72.7106 192.638 72.9106 190.058 70.3306 188.598 C 66.8506 186.598 60.7306 186.818 58.9706 183.618 C 57.6906 181.298 62.2506 178.958 60.6706 176.418 C 59.5706 174.658 57.8106 175.378 56.0906 176.538 C 52.6106 178.958 53.8706 179.158 51.3706 176.858 C 55.9306 173.678 57.3706 175.238 56.6306 172.978 C 55.775 170.479 54.3391 168.22 52.4408 166.384 C 50.5426 164.548 48.2361 163.189 45.7106 162.418 C 29.0906 159.018 23.2106 170.418 22.6906 170.418 C 21.5706 167.398 31.6906 157.578 46.2706 160.978 L 46.3706 161.018 Z M 58.6106 185.338 C 60.9906 188.318 70.7906 188.878 70.6106 191.038 C 69.7706 193.318 58.7106 187.758 59.2106 190.698 C 59.5306 191.578 60.1706 191.118 64.0906 192.478 C 71.7906 195.178 71.3706 197.978 59.7706 194.058 C 57.6306 193.338 57.3306 194.058 57.6706 194.838 C 58.0106 195.618 65.1906 197.158 64.7906 198.838 C 64.3706 200.138 47.5706 195.238 41.1906 189.578 C 43.5232 184.853 46.8289 180.675 50.8906 177.318 C 52.5106 178.898 53.1906 179.618 53.5906 179.478 C 53.9906 179.338 59.7506 174.298 59.9706 177.478 C 60.0106 179.638 55.3906 181.418 58.5106 185.298 L 58.6106 185.338 Z M 27.0906 204.738 C 44.7106 214.478 45.3306 203.158 35.6706 233.958 C 30.531 225.016 27.5582 214.995 26.9906 204.698 L 27.0906 204.738 Z M 5.67064 344.878 C 4.95064 346.278 1.67064 347.338 2.51064 342.878 C 6.17064 323.958 31.3706 256.878 43.0306 211.158 C 47.4306 212.538 50.3906 213.358 54.8106 214.498 C 51.5106 223.678 6.49064 343.618 5.67064 344.878 L 5.67064 344.878 Z M 52.8306 331.778 C 51.9306 337.778 47.3106 338.118 46.8306 331.658 C 46.2706 323.078 49.1106 300.618 51.0306 250.198 C 54.9626 252.575 59.0674 254.654 63.3106 256.418 C 62.5306 262.518 55.4706 314.238 52.8306 331.778 L 52.8306 331.778 Z M 129.591 338.258 C 122.711 340.898 124.111 343.458 119.091 267.258 C 120.031 267.258 125.751 267.358 130.831 266.918 C 130.251 303.498 130.371 333.218 129.591 338.258 L 129.591 338.258 Z M 44.8906 244.518 C 53.6706 220.518 44.2706 234.738 69.0706 246.758 C 91.0706 257.418 110.911 258.758 135.411 258.418 C 136.571 261.698 137.411 264.158 137.591 264.418 C 114.111 268.738 67.2106 262.418 44.8906 244.518 L 44.8906 244.518 Z M 131.691 326.218 C 132.871 257.038 128.731 267.598 138.131 265.978 C 141.871 276.318 143.711 281.218 145.011 284.718 C 132.091 319.698 132.531 317.958 133.811 318.718 C 135.631 319.918 135.211 318.238 131.691 326.218 Z M 156.451 314.818 C 153.945 318.11 151.275 321.274 148.451 324.298 C 143.803 322.42 139.303 320.193 134.991 317.638 C 134.811 317.518 143.551 291.498 145.391 285.638 C 155.331 312.418 156.671 314.538 156.451 314.818 Z M 181.291 327.018 C 180.291 327.318 169.531 329.898 165.511 330.558 C 115.711 227.938 161.051 265.258 100.571 255.438 C 86.5706 253.138 67.3906 247.278 56.4706 236.938 C 48.0706 228.938 49.6306 231.938 55.5906 214.738 C 58.7906 215.378 102.631 227.318 173.351 227.318 C 183.571 253.538 182.751 318.418 181.291 327.018 L 181.291 327.018 Z M 183.291 282.058 C 182.311 267.358 181.431 245.118 174.911 227.298 C 197.811 227.418 195.091 226.498 196.031 227.678 C 208.211 242.938 194.351 266.418 183.311 282.058 L 183.291 282.058 Z M 200.391 234.718 C 197.571 225.098 192.711 227.418 201.671 226.938 C 201.447 229.559 201.026 232.16 200.411 234.718 L 200.391 234.718 Z M 216.171 229.358 C 211.171 225.738 213.831 226.418 215.971 226.298 C 216.131 229.498 216.411 229.518 216.191 229.358 L 216.171 229.358 Z M 250.891 335.358 C 246.751 335.358 247.551 336.318 247.451 333.978 C 247.311 331.078 224.711 338.638 217.451 338.638 C 218.131 332.638 229.451 327.278 234.971 324.858 C 234.971 324.858 236.231 324.858 240.491 325.318 C 254.291 326.778 250.911 320.658 250.911 335.358 L 250.891 335.358 Z M 234.891 310.258 C 244.291 311.058 251.271 310.678 251.251 310.878 C 250.911 313.378 251.251 323.778 250.851 323.858 C 245.698 324.833 240.405 324.785 235.271 323.718 C 234.971 309.518 235.131 311.098 234.891 310.258 L 234.891 310.258 Z M 25.2706 201.818 C 22.0706 199.818 19.4506 198.038 20.9706 188.018 C 47.4106 210.418 202.971 231.478 343.911 192.238 C 359.911 187.778 362.271 179.578 362.251 180.238 C 361.731 198.458 356.411 201.258 340.371 205.558 C 206.651 241.338 57.1706 222.658 25.2706 201.818 L 25.2706 201.818 Z M 258.691 335.578 C 258.171 332.238 258.011 314.738 257.971 310.818 C 262.171 310.698 260.911 314.178 263.131 285.618 C 263.271 285.738 265.131 252.298 266.351 243.218 C 266.511 241.958 267.031 241.658 266.991 243.218 C 266.991 244.218 266.991 245.538 266.891 247.218 C 265.231 293.678 262.891 285.218 267.491 289.218 C 264.011 338.058 265.611 338.218 258.691 335.578 L 258.691 335.578 Z M 273.571 246.278 C 273.091 246.278 273.911 246.898 267.291 240.858 C 271.591 240.278 309.291 240.058 328.431 225.158 C 330.051 229.698 329.671 228.638 332.571 236.618 C 315.511 243.798 291.551 247.118 273.571 246.278 Z M 337.431 333.878 C 337.131 333.518 326.611 258.058 324.651 240.878 C 335.331 237.478 331.811 234.558 337.331 249.678 C 342.551 329.798 346.011 338.178 337.431 333.878 L 337.431 333.878 Z M 374.371 344.038 C 373.871 343.158 327.331 220.038 324.171 210.638 C 328.171 209.678 333.271 208.398 336.311 207.598 C 347.471 253.598 375.091 326.138 377.611 342.918 C 378.231 346.998 375.851 346.778 374.371 344.038 Z" stroke-linecap="round" /></g></g></g></svg>